<svg xmlns="http://www.w3.org/2000/svg" width="688" height="496" viewBox="0 0 688 496" role="img" aria-label="Jetsons Style"><defs><linearGradient id="jtSky" x1="0" y1="0" x2="0" y2="1"><stop offset="0" stop-color="#c3ecf6"/><stop offset="1" stop-color="#68c1dc"/></linearGradient></defs><rect x="0" y="0" width="688" height="496" fill="url(#jtSky)"/><g fill="#ffffff" opacity="0.88"><ellipse cx="96.32000000000001" cy="78" rx="34" ry="13"/><ellipse cx="78.32000000000001" cy="71" rx="18" ry="10"/><ellipse cx="110.32000000000001" cy="70" rx="20" ry="11"/></g><g fill="#ffffff" opacity="0.88"><ellipse cx="598.56" cy="118" rx="27.200000000000003" ry="10.4"/><ellipse cx="584.16" cy="112.4" rx="14.4" ry="8"/><ellipse cx="609.76" cy="111.6" rx="16" ry="8.8"/></g><g fill="#ffffff" opacity="0.88"><ellipse cx="82.56" cy="426" rx="30.6" ry="11.700000000000001"/><ellipse cx="66.36" cy="419.7" rx="16.2" ry="9"/><ellipse cx="95.16" cy="418.8" rx="18" ry="9.9"/></g><g fill="#ffffff" opacity="0.88"><ellipse cx="619.2" cy="366" rx="23.799999999999997" ry="9.1"/><ellipse cx="606.6" cy="361.1" rx="12.6" ry="7"/><ellipse cx="629" cy="360.4" rx="14" ry="7.699999999999999"/></g><path d="M 206.4 33 Q 207.66 38.74 213.4 40 Q 207.66 41.26 206.4 47 Q 205.14000000000001 41.26 199.4 40 Q 205.14000000000001 38.74 206.4 33 Z" fill="#ffffff" opacity="0.9"/><path d="M 495.35999999999996 61 Q 496.25999999999993 65.1 500.35999999999996 66 Q 496.25999999999993 66.9 495.35999999999996 71 Q 494.46 66.9 490.35999999999996 66 Q 494.46 65.1 495.35999999999996 61 Z" fill="#ffffff" opacity="0.9"/><path d="M 646.7199999999999 217.20000000000002 Q 647.8 222.12 652.7199999999999 223.20000000000002 Q 647.8 224.28000000000003 646.7199999999999 229.20000000000002 Q 645.6399999999999 224.28000000000003 640.7199999999999 223.20000000000002 Q 645.6399999999999 222.12 646.7199999999999 217.20000000000002 Z" fill="#ffffff" opacity="0.9"/><path d="M 34.4 267.8 Q 35.3 271.90000000000003 39.4 272.8 Q 35.3 273.7 34.4 277.8 Q 33.5 273.7 29.4 272.8 Q 33.5 271.90000000000003 34.4 267.8 Z" fill="#ffffff" opacity="0.9"/><line x1="344" y1="58" x2="344" y2="36" stroke="#264e58" stroke-width="2.4"/><circle cx="344" cy="30" r="6.5" fill="#ff8f70" stroke="#264e58" stroke-width="2"/><path d="M 360 17 Q 360.9 21.1 365 22 Q 360.9 22.9 360 27 Q 359.1 22.9 355 22 Q 359.1 21.1 360 17 Z" fill="#ffffff" opacity="0.9"/><rect x="184" y="58" width="320" height="48" rx="24" fill="#ff8f70" stroke="#264e58" stroke-width="2.4"/><text x="344" y="79" text-anchor="middle" font-family="'Trebuchet MS','Verdana',sans-serif" font-size="18" font-weight="bold" font-style="italic" fill="#fff8ec">Jetsons Style</text><text x="344" y="96" text-anchor="middle" font-family="'Trebuchet MS','Verdana',sans-serif" font-size="9.5" letter-spacing="3" fill="#fff2e2">8 UNITS</text><polygon points="335,414 353,414 348,466 340,466" fill="#fdf6e3" stroke="#264e58" stroke-width="2.4"/><ellipse cx="344" cy="472" rx="92" ry="13" fill="#fdf6e3" stroke="#264e58" stroke-width="2.4"/><rect x="54" y="114" width="580" height="300" rx="24" fill="#fdf6e3" stroke="#264e58" stroke-width="2.4"/><rect x="94" y="128" width="500" height="272" fill="#eaf7fa" stroke="#264e58" stroke-width="2"/><rect x="64" y="128" width="30" height="272" rx="15" fill="#dff2f6" stroke="#264e58" stroke-width="1.8"/><rect x="594" y="128" width="30" height="272" rx="15" fill="#dff2f6" stroke="#264e58" stroke-width="1.8"/><circle cx="79" cy="145" r="2.6" fill="#ff8f70" stroke="#264e58" stroke-width="1"/><circle cx="609" cy="145" r="2.6" fill="#ff8f70" stroke="#264e58" stroke-width="1"/><circle cx="38" cy="145" r="9" fill="rgba(255,255,255,.85)" stroke="#264e58" stroke-width="1.4"/><text x="38" y="148" text-anchor="middle" font-family="'Trebuchet MS','Verdana',sans-serif" font-size="8.5" font-weight="bold" fill="#264e58">8</text><circle cx="79" cy="179" r="2.6" fill="#57cfe0" stroke="#264e58" stroke-width="1"/><circle cx="609" cy="179" r="2.6" fill="#57cfe0" stroke="#264e58" stroke-width="1"/><circle cx="38" cy="179" r="9" fill="rgba(255,255,255,.85)" stroke="#264e58" stroke-width="1.4"/><text x="38" y="182" text-anchor="middle" font-family="'Trebuchet MS','Verdana',sans-serif" font-size="8.5" font-weight="bold" fill="#264e58">7</text><circle cx="79" cy="213" r="2.6" fill="#ff8f70" stroke="#264e58" stroke-width="1"/><circle cx="609" cy="213" r="2.6" fill="#ff8f70" stroke="#264e58" stroke-width="1"/><circle cx="38" cy="213" r="9" fill="rgba(255,255,255,.85)" stroke="#264e58" stroke-width="1.4"/><text x="38" y="216" text-anchor="middle" font-family="'Trebuchet MS','Verdana',sans-serif" font-size="8.5" font-weight="bold" fill="#264e58">6</text><circle cx="79" cy="247" r="2.6" fill="#57cfe0" stroke="#264e58" stroke-width="1"/><circle cx="609" cy="247" r="2.6" fill="#57cfe0" stroke="#264e58" stroke-width="1"/><circle cx="38" cy="247" r="9" fill="rgba(255,255,255,.85)" stroke="#264e58" stroke-width="1.4"/><text x="38" y="250" text-anchor="middle" font-family="'Trebuchet MS','Verdana',sans-serif" font-size="8.5" font-weight="bold" fill="#264e58">5</text><circle cx="79" cy="281" r="2.6" fill="#ff8f70" stroke="#264e58" stroke-width="1"/><circle cx="609" cy="281" r="2.6" fill="#ff8f70" stroke="#264e58" stroke-width="1"/><circle cx="38" cy="281" r="9" fill="rgba(255,255,255,.85)" stroke="#264e58" stroke-width="1.4"/><text x="38" y="284" text-anchor="middle" font-family="'Trebuchet MS','Verdana',sans-serif" font-size="8.5" font-weight="bold" fill="#264e58">4</text><circle cx="79" cy="315" r="2.6" fill="#57cfe0" stroke="#264e58" stroke-width="1"/><circle cx="609" cy="315" r="2.6" fill="#57cfe0" stroke="#264e58" stroke-width="1"/><circle cx="38" cy="315" r="9" fill="rgba(255,255,255,.85)" stroke="#264e58" stroke-width="1.4"/><text x="38" y="318" text-anchor="middle" font-family="'Trebuchet MS','Verdana',sans-serif" font-size="8.5" font-weight="bold" fill="#264e58">3</text><circle cx="79" cy="349" r="2.6" fill="#ff8f70" stroke="#264e58" stroke-width="1"/><circle cx="609" cy="349" r="2.6" fill="#ff8f70" stroke="#264e58" stroke-width="1"/><circle cx="38" cy="349" r="9" fill="rgba(255,255,255,.85)" stroke="#264e58" stroke-width="1.4"/><text x="38" y="352" text-anchor="middle" font-family="'Trebuchet MS','Verdana',sans-serif" font-size="8.5" font-weight="bold" fill="#264e58">2</text><circle cx="79" cy="383" r="2.6" fill="#57cfe0" stroke="#264e58" stroke-width="1"/><circle cx="609" cy="383" r="2.6" fill="#57cfe0" stroke="#264e58" stroke-width="1"/><circle cx="38" cy="383" r="9" fill="rgba(255,255,255,.85)" stroke="#264e58" stroke-width="1.4"/><text x="38" y="386" text-anchor="middle" font-family="'Trebuchet MS','Verdana',sans-serif" font-size="8.5" font-weight="bold" fill="#264e58">1</text><rect x="94" y="128" width="500" height="34" rx="8" fill="#ffffff" stroke="#264e58" stroke-width="2.4"/><rect x="100" y="133" width="24" height="24" rx="10" fill="#57cfe0" stroke="#264e58" stroke-width="1.8"/><circle cx="112" cy="145" r="3" fill="rgba(255,255,255,.55)"/><circle cx="142" cy="145" r="5" fill="#eef8fa" stroke="#264e58" stroke-width="1.6"/><circle cx="161.5" cy="145" r="5" fill="#eef8fa" stroke="#264e58" stroke-width="1.6"/><circle cx="181" cy="145" r="5" fill="#eef8fa" stroke="#264e58" stroke-width="1.6"/><circle cx="200.5" cy="145" r="5" fill="#eef8fa" stroke="#264e58" stroke-width="1.6"/><circle cx="220" cy="145" r="5" fill="#eef8fa" stroke="#264e58" stroke-width="1.6"/><circle cx="239.5" cy="145" r="5" fill="#eef8fa" stroke="#264e58" stroke-width="1.6"/><circle cx="259" cy="145" r="5" fill="#eef8fa" stroke="#264e58" stroke-width="1.6"/><circle cx="278.5" cy="145" r="5" fill="#eef8fa" stroke="#264e58" stroke-width="1.6"/><circle cx="298" cy="145" r="5" fill="#eef8fa" stroke="#264e58" stroke-width="1.6"/><circle cx="317.5" cy="145" r="5" fill="#eef8fa" stroke="#264e58" stroke-width="1.6"/><circle cx="337" cy="145" r="5" fill="#eef8fa" stroke="#264e58" stroke-width="1.6"/><circle cx="356.5" cy="145" r="5" fill="#eef8fa" stroke="#264e58" stroke-width="1.6"/><circle cx="376" cy="145" r="5" fill="#eef8fa" stroke="#264e58" stroke-width="1.6"/><circle cx="395.5" cy="145" r="5" fill="#eef8fa" stroke="#264e58" stroke-width="1.6"/><circle cx="416" cy="145" r="4" fill="#ffffff" stroke="#57cfe0" stroke-width="2.6"/><circle cx="432" cy="145" r="4" fill="#57cfe0" stroke="#264e58" stroke-width="1.4"/><text x="582" y="149.5" text-anchor="end" font-family="'Trebuchet MS','Verdana',sans-serif" font-size="12.5" font-weight="bold" font-style="italic" fill="#264e58">QFX5200</text><rect x="94" y="162" width="500" height="34" rx="8" fill="#b79fe0" stroke="#264e58" stroke-width="2.4"/><circle cx="112" cy="177" r="4.2" fill="#ffffff" stroke="#264e58" stroke-width="1.4"/><circle cx="132.17391304347825" cy="177" r="4.2" fill="#ffffff" stroke="#264e58" stroke-width="1.4"/><circle cx="152.34782608695653" cy="177" r="4.2" fill="#ffffff" stroke="#264e58" stroke-width="1.4"/><circle cx="172.52173913043478" cy="177" r="4.2" fill="#ffffff" stroke="#264e58" stroke-width="1.4"/><circle cx="192.69565217391306" cy="177" r="4.2" fill="#ffffff" stroke="#264e58" stroke-width="1.4"/><circle cx="212.8695652173913" cy="177" r="4.2" fill="#ffffff" stroke="#264e58" stroke-width="1.4"/><circle cx="233.04347826086956" cy="177" r="4.2" fill="#ffffff" stroke="#264e58" stroke-width="1.4"/><circle cx="253.21739130434784" cy="177" r="4.2" fill="#ffffff" stroke="#264e58" stroke-width="1.4"/><circle cx="273.3913043478261" cy="177" r="4.2" fill="#ffffff" stroke="#264e58" stroke-width="1.4"/><circle cx="293.5652173913044" cy="177" r="4.2" fill="#ffffff" stroke="#264e58" stroke-width="1.4"/><circle cx="313.7391304347826" cy="177" r="4.2" fill="#ffffff" stroke="#264e58" stroke-width="1.4"/><circle cx="333.9130434782609" cy="177" r="4.2" fill="#ffffff" stroke="#264e58" stroke-width="1.4"/><circle cx="354.0869565217391" cy="177" r="4.2" fill="#ffffff" stroke="#264e58" stroke-width="1.4"/><circle cx="374.2608695652174" cy="177" r="4.2" fill="#ffffff" stroke="#264e58" stroke-width="1.4"/><circle cx="394.4347826086957" cy="177" r="4.2" fill="#ffffff" stroke="#264e58" stroke-width="1.4"/><circle cx="414.60869565217394" cy="177" r="4.2" fill="#ffffff" stroke="#264e58" stroke-width="1.4"/><circle cx="434.7826086956522" cy="177" r="4.2" fill="#ffffff" stroke="#264e58" stroke-width="1.4"/><circle cx="454.95652173913044" cy="177" r="4.2" fill="#ffffff" stroke="#264e58" stroke-width="1.4"/><circle cx="475.1304347826087" cy="177" r="4.2" fill="#ffffff" stroke="#264e58" stroke-width="1.4"/><circle cx="495.304347826087" cy="177" r="4.2" fill="#ffffff" stroke="#264e58" stroke-width="1.4"/><circle cx="515.4782608695652" cy="177" r="4.2" fill="#ffffff" stroke="#264e58" stroke-width="1.4"/><circle cx="535.6521739130435" cy="177" r="4.2" fill="#ffffff" stroke="#264e58" stroke-width="1.4"/><circle cx="555.8260869565217" cy="177" r="4.2" fill="#ffffff" stroke="#264e58" stroke-width="1.4"/><circle cx="576" cy="177" r="4.2" fill="#ffffff" stroke="#264e58" stroke-width="1.4"/><rect x="94" y="196" width="500" height="34" rx="8" fill="#f4c542" stroke="#264e58" stroke-width="2.4"/><line x1="106" y1="202" x2="106" y2="217" stroke="#264e58" stroke-width="1.4" opacity="0.45" stroke-linecap="round"/><line x1="112" y1="202" x2="112" y2="217" stroke="#264e58" stroke-width="1.4" opacity="0.45" stroke-linecap="round"/><line x1="118" y1="202" x2="118" y2="217" stroke="#264e58" stroke-width="1.4" opacity="0.45" stroke-linecap="round"/><line x1="124" y1="202" x2="124" y2="217" stroke="#264e58" stroke-width="1.4" opacity="0.45" stroke-linecap="round"/><line x1="130" y1="202" x2="130" y2="217" stroke="#264e58" stroke-width="1.4" opacity="0.45" stroke-linecap="round"/><line x1="136" y1="202" x2="136" y2="217" stroke="#264e58" stroke-width="1.4" opacity="0.45" stroke-linecap="round"/><line x1="142" y1="202" x2="142" y2="217" stroke="#264e58" stroke-width="1.4" opacity="0.45" stroke-linecap="round"/><line x1="148" y1="202" x2="148" y2="217" stroke="#264e58" stroke-width="1.4" opacity="0.45" stroke-linecap="round"/><line x1="154" y1="202" x2="154" y2="217" stroke="#264e58" stroke-width="1.4" opacity="0.45" stroke-linecap="round"/><line x1="160" y1="202" x2="160" y2="217" stroke="#264e58" stroke-width="1.4" opacity="0.45" stroke-linecap="round"/><line x1="166" y1="202" x2="166" y2="217" stroke="#264e58" stroke-width="1.4" opacity="0.45" stroke-linecap="round"/><line x1="172" y1="202" x2="172" y2="217" stroke="#264e58" stroke-width="1.4" opacity="0.45" stroke-linecap="round"/><line x1="178" y1="202" x2="178" y2="217" stroke="#264e58" stroke-width="1.4" opacity="0.45" stroke-linecap="round"/><line x1="184" y1="202" x2="184" y2="217" stroke="#264e58" stroke-width="1.4" opacity="0.45" stroke-linecap="round"/><line x1="190" y1="202" x2="190" y2="217" stroke="#264e58" stroke-width="1.4" opacity="0.45" stroke-linecap="round"/><line x1="196" y1="202" x2="196" y2="217" stroke="#264e58" stroke-width="1.4" opacity="0.45" stroke-linecap="round"/><line x1="202" y1="202" x2="202" y2="217" stroke="#264e58" stroke-width="1.4" opacity="0.45" stroke-linecap="round"/><line x1="208" y1="202" x2="208" y2="217" stroke="#264e58" stroke-width="1.4" opacity="0.45" stroke-linecap="round"/><line x1="214" y1="202" x2="214" y2="217" stroke="#264e58" stroke-width="1.4" opacity="0.45" stroke-linecap="round"/><line x1="220" y1="202" x2="220" y2="217" stroke="#264e58" stroke-width="1.4" opacity="0.45" stroke-linecap="round"/><line x1="226" y1="202" x2="226" y2="217" stroke="#264e58" stroke-width="1.4" opacity="0.45" stroke-linecap="round"/><line x1="232" y1="202" x2="232" y2="217" stroke="#264e58" stroke-width="1.4" opacity="0.45" stroke-linecap="round"/><line x1="238" y1="202" x2="238" y2="217" stroke="#264e58" stroke-width="1.4" opacity="0.45" stroke-linecap="round"/><line x1="244" y1="202" x2="244" y2="217" stroke="#264e58" stroke-width="1.4" opacity="0.45" stroke-linecap="round"/><line x1="250" y1="202" x2="250" y2="217" stroke="#264e58" stroke-width="1.4" opacity="0.45" stroke-linecap="round"/><line x1="256" y1="202" x2="256" y2="217" stroke="#264e58" stroke-width="1.4" opacity="0.45" stroke-linecap="round"/><line x1="262" y1="202" x2="262" y2="217" stroke="#264e58" stroke-width="1.4" opacity="0.45" stroke-linecap="round"/><line x1="268" y1="202" x2="268" y2="217" stroke="#264e58" stroke-width="1.4" opacity="0.45" stroke-linecap="round"/><line x1="274" y1="202" x2="274" y2="217" stroke="#264e58" stroke-width="1.4" opacity="0.45" stroke-linecap="round"/><line x1="280" y1="202" x2="280" y2="217" stroke="#264e58" stroke-width="1.4" opacity="0.45" stroke-linecap="round"/><line x1="286" y1="202" x2="286" y2="217" stroke="#264e58" stroke-width="1.4" opacity="0.45" stroke-linecap="round"/><line x1="292" y1="202" x2="292" y2="217" stroke="#264e58" stroke-width="1.4" opacity="0.45" stroke-linecap="round"/><line x1="298" y1="202" x2="298" y2="217" stroke="#264e58" stroke-width="1.4" opacity="0.45" stroke-linecap="round"/><line x1="304" y1="202" x2="304" y2="217" stroke="#264e58" stroke-width="1.4" opacity="0.45" stroke-linecap="round"/><line x1="310" y1="202" x2="310" y2="217" stroke="#264e58" stroke-width="1.4" opacity="0.45" stroke-linecap="round"/><line x1="316" y1="202" x2="316" y2="217" stroke="#264e58" stroke-width="1.4" opacity="0.45" stroke-linecap="round"/><line x1="322" y1="202" x2="322" y2="217" stroke="#264e58" stroke-width="1.4" opacity="0.45" stroke-linecap="round"/><line x1="328" y1="202" x2="328" y2="217" stroke="#264e58" stroke-width="1.4" opacity="0.45" stroke-linecap="round"/><line x1="334" y1="202" x2="334" y2="217" stroke="#264e58" stroke-width="1.4" opacity="0.45" stroke-linecap="round"/><line x1="340" y1="202" x2="340" y2="217" stroke="#264e58" stroke-width="1.4" opacity="0.45" stroke-linecap="round"/><line x1="346" y1="202" x2="346" y2="217" stroke="#264e58" stroke-width="1.4" opacity="0.45" stroke-linecap="round"/><line x1="352" y1="202" x2="352" y2="217" stroke="#264e58" stroke-width="1.4" opacity="0.45" stroke-linecap="round"/><line x1="358" y1="202" x2="358" y2="217" stroke="#264e58" stroke-width="1.4" opacity="0.45" stroke-linecap="round"/><line x1="364" y1="202" x2="364" y2="217" stroke="#264e58" stroke-width="1.4" opacity="0.45" stroke-linecap="round"/><line x1="370" y1="202" x2="370" y2="217" stroke="#264e58" stroke-width="1.4" opacity="0.45" stroke-linecap="round"/><line x1="376" y1="202" x2="376" y2="217" stroke="#264e58" stroke-width="1.4" opacity="0.45" stroke-linecap="round"/><line x1="382" y1="202" x2="382" y2="217" stroke="#264e58" stroke-width="1.4" opacity="0.45" stroke-linecap="round"/><line x1="388" y1="202" x2="388" y2="217" stroke="#264e58" stroke-width="1.4" opacity="0.45" stroke-linecap="round"/><line x1="394" y1="202" x2="394" y2="217" stroke="#264e58" stroke-width="1.4" opacity="0.45" stroke-linecap="round"/><line x1="400" y1="202" x2="400" y2="217" stroke="#264e58" stroke-width="1.4" opacity="0.45" stroke-linecap="round"/><line x1="406" y1="202" x2="406" y2="217" stroke="#264e58" stroke-width="1.4" opacity="0.45" stroke-linecap="round"/><line x1="412" y1="202" x2="412" y2="217" stroke="#264e58" stroke-width="1.4" opacity="0.45" stroke-linecap="round"/><line x1="418" y1="202" x2="418" y2="217" stroke="#264e58" stroke-width="1.4" opacity="0.45" stroke-linecap="round"/><line x1="424" y1="202" x2="424" y2="217" stroke="#264e58" stroke-width="1.4" opacity="0.45" stroke-linecap="round"/><line x1="430" y1="202" x2="430" y2="217" stroke="#264e58" stroke-width="1.4" opacity="0.45" stroke-linecap="round"/><line x1="436" y1="202" x2="436" y2="217" stroke="#264e58" stroke-width="1.4" opacity="0.45" stroke-linecap="round"/><line x1="442" y1="202" x2="442" y2="217" stroke="#264e58" stroke-width="1.4" opacity="0.45" stroke-linecap="round"/><line x1="448" y1="202" x2="448" y2="217" stroke="#264e58" stroke-width="1.4" opacity="0.45" stroke-linecap="round"/><line x1="454" y1="202" x2="454" y2="217" stroke="#264e58" stroke-width="1.4" opacity="0.45" stroke-linecap="round"/><line x1="460" y1="202" x2="460" y2="217" stroke="#264e58" stroke-width="1.4" opacity="0.45" stroke-linecap="round"/><line x1="466" y1="202" x2="466" y2="217" stroke="#264e58" stroke-width="1.4" opacity="0.45" stroke-linecap="round"/><line x1="472" y1="202" x2="472" y2="217" stroke="#264e58" stroke-width="1.4" opacity="0.45" stroke-linecap="round"/><line x1="478" y1="202" x2="478" y2="217" stroke="#264e58" stroke-width="1.4" opacity="0.45" stroke-linecap="round"/><line x1="484" y1="202" x2="484" y2="217" stroke="#264e58" stroke-width="1.4" opacity="0.45" stroke-linecap="round"/><line x1="490" y1="202" x2="490" y2="217" stroke="#264e58" stroke-width="1.4" opacity="0.45" stroke-linecap="round"/><line x1="496" y1="202" x2="496" y2="217" stroke="#264e58" stroke-width="1.4" opacity="0.45" stroke-linecap="round"/><line x1="502" y1="202" x2="502" y2="217" stroke="#264e58" stroke-width="1.4" opacity="0.45" stroke-linecap="round"/><line x1="508" y1="202" x2="508" y2="217" stroke="#264e58" stroke-width="1.4" opacity="0.45" stroke-linecap="round"/><line x1="514" y1="202" x2="514" y2="217" stroke="#264e58" stroke-width="1.4" opacity="0.45" stroke-linecap="round"/><line x1="520" y1="202" x2="520" y2="217" stroke="#264e58" stroke-width="1.4" opacity="0.45" stroke-linecap="round"/><line x1="526" y1="202" x2="526" y2="217" stroke="#264e58" stroke-width="1.4" opacity="0.45" stroke-linecap="round"/><line x1="532" y1="202" x2="532" y2="217" stroke="#264e58" stroke-width="1.4" opacity="0.45" stroke-linecap="round"/><line x1="538" y1="202" x2="538" y2="217" stroke="#264e58" stroke-width="1.4" opacity="0.45" stroke-linecap="round"/><line x1="544" y1="202" x2="544" y2="217" stroke="#264e58" stroke-width="1.4" opacity="0.45" stroke-linecap="round"/><line x1="550" y1="202" x2="550" y2="217" stroke="#264e58" stroke-width="1.4" opacity="0.45" stroke-linecap="round"/><line x1="556" y1="202" x2="556" y2="217" stroke="#264e58" stroke-width="1.4" opacity="0.45" stroke-linecap="round"/><line x1="562" y1="202" x2="562" y2="217" stroke="#264e58" stroke-width="1.4" opacity="0.45" stroke-linecap="round"/><line x1="568" y1="202" x2="568" y2="217" stroke="#264e58" stroke-width="1.4" opacity="0.45" stroke-linecap="round"/><line x1="574" y1="202" x2="574" y2="217" stroke="#264e58" stroke-width="1.4" opacity="0.45" stroke-linecap="round"/><line x1="580" y1="202" x2="580" y2="217" stroke="#264e58" stroke-width="1.4" opacity="0.45" stroke-linecap="round"/><rect x="94" y="230" width="500" height="68" rx="8" fill="#ffffff" stroke="#264e58" stroke-width="2.4"/><rect x="100" y="235" width="56" height="58" rx="10" fill="#8fd6a2" stroke="#264e58" stroke-width="1.8"/><circle cx="128" cy="264" r="3" fill="rgba(255,255,255,.55)"/><rect x="168" y="236" width="66" height="56" rx="11" fill="#f4f9fa" stroke="#264e58" stroke-width="1.8"/><circle cx="220" cy="264" r="2.6" fill="#8fd6a2" stroke="#264e58" stroke-width="1"/><rect x="244" y="236" width="66" height="56" rx="11" fill="#f4f9fa" stroke="#264e58" stroke-width="1.8"/><circle cx="296" cy="264" r="2.6" fill="#8fd6a2" stroke="#264e58" stroke-width="1"/><rect x="320" y="236" width="66" height="56" rx="11" fill="#f4f9fa" stroke="#264e58" stroke-width="1.8"/><circle cx="372" cy="264" r="2.6" fill="#8fd6a2" stroke="#264e58" stroke-width="1"/><rect x="396" y="236" width="66" height="56" rx="11" fill="#f4f9fa" stroke="#264e58" stroke-width="1.8"/><circle cx="448" cy="264" r="2.6" fill="#8fd6a2" stroke="#264e58" stroke-width="1"/><text x="582" y="268.5" text-anchor="end" font-family="'Trebuchet MS','Verdana',sans-serif" font-size="12.5" font-weight="bold" font-style="italic" fill="#264e58">web01</text><rect x="94" y="298" width="500" height="68" rx="8" fill="#ffffff" stroke="#264e58" stroke-width="2.4"/><rect x="100" y="303" width="56" height="58" rx="10" fill="#7fd6c2" stroke="#264e58" stroke-width="1.8"/><circle cx="128" cy="332" r="3" fill="rgba(255,255,255,.55)"/><rect x="168" y="302" width="68" height="12" rx="6" fill="#f4f9fa" stroke="#264e58" stroke-width="1.5"/><circle cx="226" cy="308" r="2.2" fill="#ffd24a" stroke="#264e58" stroke-width="0.9"/><rect x="244" y="302" width="68" height="12" rx="6" fill="#f4f9fa" stroke="#264e58" stroke-width="1.5"/><circle cx="302" cy="308" r="2.2" fill="#7fd6c2" stroke="#264e58" stroke-width="0.9"/><rect x="320" y="302" width="68" height="12" rx="6" fill="#f4f9fa" stroke="#264e58" stroke-width="1.5"/><circle cx="378" cy="308" r="2.2" fill="#ffd24a" stroke="#264e58" stroke-width="0.9"/><rect x="396" y="302" width="68" height="12" rx="6" fill="#f4f9fa" stroke="#264e58" stroke-width="1.5"/><circle cx="454" cy="308" r="2.2" fill="#7fd6c2" stroke="#264e58" stroke-width="0.9"/><rect x="168" y="317" width="68" height="12" rx="6" fill="#f4f9fa" stroke="#264e58" stroke-width="1.5"/><circle cx="226" cy="323" r="2.2" fill="#7fd6c2" stroke="#264e58" stroke-width="0.9"/><rect x="244" y="317" width="68" height="12" rx="6" fill="#f4f9fa" stroke="#264e58" stroke-width="1.5"/><circle cx="302" cy="323" r="2.2" fill="#ffd24a" stroke="#264e58" stroke-width="0.9"/><rect x="320" y="317" width="68" height="12" rx="6" fill="#f4f9fa" stroke="#264e58" stroke-width="1.5"/><circle cx="378" cy="323" r="2.2" fill="#7fd6c2" stroke="#264e58" stroke-width="0.9"/><rect x="396" y="317" width="68" height="12" rx="6" fill="#f4f9fa" stroke="#264e58" stroke-width="1.5"/><circle cx="454" cy="323" r="2.2" fill="#ffd24a" stroke="#264e58" stroke-width="0.9"/><rect x="168" y="336" width="68" height="12" rx="6" fill="#f4f9fa" stroke="#264e58" stroke-width="1.5"/><circle cx="226" cy="342" r="2.2" fill="#ffd24a" stroke="#264e58" stroke-width="0.9"/><rect x="244" y="336" width="68" height="12" rx="6" fill="#f4f9fa" stroke="#264e58" stroke-width="1.5"/><circle cx="302" cy="342" r="2.2" fill="#7fd6c2" stroke="#264e58" stroke-width="0.9"/><rect x="320" y="336" width="68" height="12" rx="6" fill="#f4f9fa" stroke="#264e58" stroke-width="1.5"/><circle cx="378" cy="342" r="2.2" fill="#ffd24a" stroke="#264e58" stroke-width="0.9"/><rect x="396" y="336" width="68" height="12" rx="6" fill="#f4f9fa" stroke="#264e58" stroke-width="1.5"/><circle cx="454" cy="342" r="2.2" fill="#7fd6c2" stroke="#264e58" stroke-width="0.9"/><rect x="168" y="351" width="68" height="12" rx="6" fill="#f4f9fa" stroke="#264e58" stroke-width="1.5"/><circle cx="226" cy="357" r="2.2" fill="#7fd6c2" stroke="#264e58" stroke-width="0.9"/><rect x="244" y="351" width="68" height="12" rx="6" fill="#f4f9fa" stroke="#264e58" stroke-width="1.5"/><circle cx="302" cy="357" r="2.2" fill="#ffd24a" stroke="#264e58" stroke-width="0.9"/><rect x="320" y="351" width="68" height="12" rx="6" fill="#f4f9fa" stroke="#264e58" stroke-width="1.5"/><circle cx="378" cy="357" r="2.2" fill="#7fd6c2" stroke="#264e58" stroke-width="0.9"/><rect x="396" y="351" width="68" height="12" rx="6" fill="#f4f9fa" stroke="#264e58" stroke-width="1.5"/><circle cx="454" cy="357" r="2.2" fill="#ffd24a" stroke="#264e58" stroke-width="0.9"/><text x="582" y="336.5" text-anchor="end" font-family="'Trebuchet MS','Verdana',sans-serif" font-size="12.5" font-weight="bold" font-style="italic" fill="#264e58">SAN</text><rect x="94" y="366" width="500" height="34" rx="8" fill="#ffffff" stroke="#264e58" stroke-width="2.4"/><rect x="100" y="371" width="24" height="24" rx="10" fill="#ffb454" stroke="#264e58" stroke-width="1.8"/><circle cx="112" cy="383" r="3" fill="rgba(255,255,255,.55)"/><rect x="136" y="372" width="88" height="22" rx="8" fill="#f4f9fa" stroke="#264e58" stroke-width="1.8"/><circle cx="180" cy="383" r="7" fill="#ffb454" stroke="#264e58" stroke-width="1.6"/><line x1="180" y1="383" x2="184.9" y2="379.5" stroke="#264e58" stroke-width="1.4"/><rect x="236" y="372" width="88" height="22" rx="8" fill="#f4f9fa" stroke="#264e58" stroke-width="1.8"/><circle cx="280" cy="383" r="7" fill="#ffb454" stroke="#264e58" stroke-width="1.6"/><line x1="280" y1="383" x2="284.9" y2="379.5" stroke="#264e58" stroke-width="1.4"/><rect x="336" y="372" width="88" height="22" rx="8" fill="#f4f9fa" stroke="#264e58" stroke-width="1.8"/><circle cx="380" cy="383" r="7" fill="#ffb454" stroke="#264e58" stroke-width="1.6"/><line x1="380" y1="383" x2="384.9" y2="379.5" stroke="#264e58" stroke-width="1.4"/><text x="582" y="387.5" text-anchor="end" font-family="'Trebuchet MS','Verdana',sans-serif" font-size="12.5" font-weight="bold" font-style="italic" fill="#264e58">PDU</text></svg>