<svg xmlns="http://www.w3.org/2000/svg" width="664" height="446" viewBox="0 0 664 446" role="img" aria-label="Steampunk Style"><defs>
<linearGradient id="spBg" x1="0" y1="0" x2="0" y2="1"><stop offset="0" stop-color="#3a2a1c"/><stop offset="1" stop-color="#1f1409"/></linearGradient>
<linearGradient id="spWood" x1="0" y1="0" x2="0" y2="1"><stop offset="0" stop-color="#6b4a2c"/><stop offset="1" stop-color="#4a3018"/></linearGradient>
<linearGradient id="spBrass" x1="0" y1="0" x2="0" y2="1"><stop offset="0" stop-color="#d9b45f"/><stop offset="1" stop-color="#a3782f"/></linearGradient>
<linearGradient id="spPlate" x1="0" y1="0" x2="0" y2="1"><stop offset="0" stop-color="#dcc08e"/><stop offset="1" stop-color="#bfa065"/></linearGradient>
<linearGradient id="spCopper" x1="0" y1="0" x2="0" y2="1"><stop offset="0" stop-color="#d08a55"/><stop offset="1" stop-color="#a25f33"/></linearGradient>
</defs><rect x="0" y="0" width="664" height="446" fill="url(#spBg)"/><rect x="123.4" y="39.5" width="5.2" height="9" fill="#a3782f" stroke="#241407" stroke-width="1.2" transform="rotate(0 126 58)"/><rect x="123.4" y="39.5" width="5.2" height="9" fill="#a3782f" stroke="#241407" stroke-width="1.2" transform="rotate(45 126 58)"/><rect x="123.4" y="39.5" width="5.2" height="9" fill="#a3782f" stroke="#241407" stroke-width="1.2" transform="rotate(90 126 58)"/><rect x="123.4" y="39.5" width="5.2" height="9" fill="#a3782f" stroke="#241407" stroke-width="1.2" transform="rotate(135 126 58)"/><rect x="123.4" y="39.5" width="5.2" height="9" fill="#a3782f" stroke="#241407" stroke-width="1.2" transform="rotate(180 126 58)"/><rect x="123.4" y="39.5" width="5.2" height="9" fill="#a3782f" stroke="#241407" stroke-width="1.2" transform="rotate(225 126 58)"/><rect x="123.4" y="39.5" width="5.2" height="9" fill="#a3782f" stroke="#241407" stroke-width="1.2" transform="rotate(270 126 58)"/><rect x="123.4" y="39.5" width="5.2" height="9" fill="#a3782f" stroke="#241407" stroke-width="1.2" transform="rotate(315 126 58)"/><circle cx="126" cy="58" r="14" fill="url(#spBrass)" stroke="#241407" stroke-width="2"/><circle cx="126" cy="58" r="4.760000000000001" fill="#3c2716" stroke="#241407" stroke-width="1.4"/><rect x="535.4" y="24.5" width="5.2" height="9" fill="#a3782f" stroke="#241407" stroke-width="1.2" transform="rotate(0 538 40)"/><rect x="535.4" y="24.5" width="5.2" height="9" fill="#a3782f" stroke="#241407" stroke-width="1.2" transform="rotate(45 538 40)"/><rect x="535.4" y="24.5" width="5.2" height="9" fill="#a3782f" stroke="#241407" stroke-width="1.2" transform="rotate(90 538 40)"/><rect x="535.4" y="24.5" width="5.2" height="9" fill="#a3782f" stroke="#241407" stroke-width="1.2" transform="rotate(135 538 40)"/><rect x="535.4" y="24.5" width="5.2" height="9" fill="#a3782f" stroke="#241407" stroke-width="1.2" transform="rotate(180 538 40)"/><rect x="535.4" y="24.5" width="5.2" height="9" fill="#a3782f" stroke="#241407" stroke-width="1.2" transform="rotate(225 538 40)"/><rect x="535.4" y="24.5" width="5.2" height="9" fill="#a3782f" stroke="#241407" stroke-width="1.2" transform="rotate(270 538 40)"/><rect x="535.4" y="24.5" width="5.2" height="9" fill="#a3782f" stroke="#241407" stroke-width="1.2" transform="rotate(315 538 40)"/><circle cx="538" cy="40" r="11" fill="url(#spBrass)" stroke="#241407" stroke-width="2"/><circle cx="538" cy="40" r="3.74" fill="#3c2716" stroke="#241407" stroke-width="1.4"/><rect x="152" y="18" width="360" height="56" rx="8" fill="url(#spBrass)" stroke="#241407" stroke-width="3"/><rect x="157" y="23" width="350" height="46" rx="5" fill="none" stroke="rgba(36,20,7,.4)" stroke-width="1.6"/><polygon points="169.5,34.0 166.0,36.0 162.5,34.0 162.5,30.0 166.0,28.0 169.5,30.0" fill="#d9b45f" stroke="#241407" stroke-width="1.2"/><polygon points="501.5,34.0 498.0,36.0 494.5,34.0 494.5,30.0 498.0,28.0 501.5,30.0" fill="#d9b45f" stroke="#241407" stroke-width="1.2"/><polygon points="169.5,62.0 166.0,64.0 162.5,62.0 162.5,58.0 166.0,56.0 169.5,58.0" fill="#d9b45f" stroke="#241407" stroke-width="1.2"/><polygon points="501.5,62.0 498.0,64.0 494.5,62.0 494.5,58.0 498.0,56.0 501.5,58.0" fill="#d9b45f" stroke="#241407" stroke-width="1.2"/><text x="332" y="44" text-anchor="middle" font-family="'Georgia','Times New Roman',serif" font-size="19" font-weight="bold" fill="#241407">Steampunk Style</text><text x="332" y="62" text-anchor="middle" font-family="'Georgia','Times New Roman',serif" font-size="10.5" letter-spacing="3" fill="#4a3018">8 UNITS</text><rect x="36" y="96" width="592" height="300" rx="10" fill="url(#spWood)" stroke="#241407" stroke-width="3"/><rect x="82" y="110" width="500" height="272" fill="#1a120a" stroke="#241407" stroke-width="3"/><rect x="46" y="110" width="36" height="272" fill="url(#spBrass)" stroke="#241407" stroke-width="2.2"/><rect x="582" y="110" width="36" height="272" fill="url(#spBrass)" stroke="#241407" stroke-width="2.2"/><polygon points="67.5,129.0 64.0,131.0 60.5,129.0 60.5,125.0 64.0,123.0 67.5,125.0" fill="#d9b45f" stroke="#241407" stroke-width="1.2"/><polygon points="603.5,129.0 600.0,131.0 596.5,129.0 596.5,125.0 600.0,123.0 603.5,125.0" fill="#d9b45f" stroke="#241407" stroke-width="1.2"/><text x="31" y="130.5" text-anchor="end" font-family="'Georgia','Times New Roman',serif" font-size="10" fill="#c9a86a">8</text><polygon points="67.5,163.0 64.0,165.0 60.5,163.0 60.5,159.0 64.0,157.0 67.5,159.0" fill="#d9b45f" stroke="#241407" stroke-width="1.2"/><polygon points="603.5,163.0 600.0,165.0 596.5,163.0 596.5,159.0 600.0,157.0 603.5,159.0" fill="#d9b45f" stroke="#241407" stroke-width="1.2"/><text x="31" y="164.5" text-anchor="end" font-family="'Georgia','Times New Roman',serif" font-size="10" fill="#c9a86a">7</text><polygon points="67.5,197.0 64.0,199.0 60.5,197.0 60.5,193.0 64.0,191.0 67.5,193.0" fill="#d9b45f" stroke="#241407" stroke-width="1.2"/><polygon points="603.5,197.0 600.0,199.0 596.5,197.0 596.5,193.0 600.0,191.0 603.5,193.0" fill="#d9b45f" stroke="#241407" stroke-width="1.2"/><text x="31" y="198.5" text-anchor="end" font-family="'Georgia','Times New Roman',serif" font-size="10" fill="#c9a86a">6</text><polygon points="67.5,231.0 64.0,233.0 60.5,231.0 60.5,227.0 64.0,225.0 67.5,227.0" fill="#d9b45f" stroke="#241407" stroke-width="1.2"/><polygon points="603.5,231.0 600.0,233.0 596.5,231.0 596.5,227.0 600.0,225.0 603.5,227.0" fill="#d9b45f" stroke="#241407" stroke-width="1.2"/><text x="31" y="232.5" text-anchor="end" font-family="'Georgia','Times New Roman',serif" font-size="10" fill="#c9a86a">5</text><polygon points="67.5,265.0 64.0,267.0 60.5,265.0 60.5,261.0 64.0,259.0 67.5,261.0" fill="#d9b45f" stroke="#241407" stroke-width="1.2"/><polygon points="603.5,265.0 600.0,267.0 596.5,265.0 596.5,261.0 600.0,259.0 603.5,261.0" fill="#d9b45f" stroke="#241407" stroke-width="1.2"/><text x="31" y="266.5" text-anchor="end" font-family="'Georgia','Times New Roman',serif" font-size="10" fill="#c9a86a">4</text><polygon points="67.5,299.0 64.0,301.0 60.5,299.0 60.5,295.0 64.0,293.0 67.5,295.0" fill="#d9b45f" stroke="#241407" stroke-width="1.2"/><polygon points="603.5,299.0 600.0,301.0 596.5,299.0 596.5,295.0 600.0,293.0 603.5,295.0" fill="#d9b45f" stroke="#241407" stroke-width="1.2"/><text x="31" y="300.5" text-anchor="end" font-family="'Georgia','Times New Roman',serif" font-size="10" fill="#c9a86a">3</text><polygon points="67.5,333.0 64.0,335.0 60.5,333.0 60.5,329.0 64.0,327.0 67.5,329.0" fill="#d9b45f" stroke="#241407" stroke-width="1.2"/><polygon points="603.5,333.0 600.0,335.0 596.5,333.0 596.5,329.0 600.0,327.0 603.5,329.0" fill="#d9b45f" stroke="#241407" stroke-width="1.2"/><text x="31" y="334.5" text-anchor="end" font-family="'Georgia','Times New Roman',serif" font-size="10" fill="#c9a86a">2</text><polygon points="67.5,367.0 64.0,369.0 60.5,367.0 60.5,363.0 64.0,361.0 67.5,363.0" fill="#d9b45f" stroke="#241407" stroke-width="1.2"/><polygon points="603.5,367.0 600.0,369.0 596.5,367.0 596.5,363.0 600.0,361.0 603.5,363.0" fill="#d9b45f" stroke="#241407" stroke-width="1.2"/><text x="31" y="368.5" text-anchor="end" font-family="'Georgia','Times New Roman',serif" font-size="10" fill="#c9a86a">1</text><rect x="82" y="110" width="500" height="34" fill="url(#spPlate)" stroke="#241407" stroke-width="3"/><rect x="82" y="110" width="34" height="34" fill="#c97b4a" stroke="#241407" stroke-width="3"/><circle cx="99" cy="127" r="2.4" fill="#d9b45f" stroke="#241407" stroke-width="1.1"/><circle cx="89" cy="117" r="2.2" fill="#d9b45f" stroke="#241407" stroke-width="1.2"/><circle cx="575" cy="117" r="2.2" fill="#d9b45f" stroke="#241407" stroke-width="1.2"/><circle cx="89" cy="137" r="2.2" fill="#d9b45f" stroke="#241407" stroke-width="1.2"/><circle cx="575" cy="137" r="2.2" fill="#d9b45f" stroke="#241407" stroke-width="1.2"/><circle cx="136" cy="127" r="5.5" fill="#1a120a" stroke="#d9b45f" stroke-width="1.8"/><line x1="133" y1="127" x2="139" y2="127" stroke="#d9b45f" stroke-width="1"/><line x1="136" y1="124" x2="136" y2="130" stroke="#d9b45f" stroke-width="1"/><circle cx="158" cy="127" r="5.5" fill="#1a120a" stroke="#d9b45f" stroke-width="1.8"/><line x1="155" y1="127" x2="161" y2="127" stroke="#d9b45f" stroke-width="1"/><line x1="158" y1="124" x2="158" y2="130" stroke="#d9b45f" stroke-width="1"/><circle cx="180" cy="127" r="5.5" fill="#1a120a" stroke="#d9b45f" stroke-width="1.8"/><line x1="177" y1="127" x2="183" y2="127" stroke="#d9b45f" stroke-width="1"/><line x1="180" y1="124" x2="180" y2="130" stroke="#d9b45f" stroke-width="1"/><circle cx="202" cy="127" r="5.5" fill="#1a120a" stroke="#d9b45f" stroke-width="1.8"/><line x1="199" y1="127" x2="205" y2="127" stroke="#d9b45f" stroke-width="1"/><line x1="202" y1="124" x2="202" y2="130" stroke="#d9b45f" stroke-width="1"/><circle cx="224" cy="127" r="5.5" fill="#1a120a" stroke="#d9b45f" stroke-width="1.8"/><line x1="221" y1="127" x2="227" y2="127" stroke="#d9b45f" stroke-width="1"/><line x1="224" y1="124" x2="224" y2="130" stroke="#d9b45f" stroke-width="1"/><circle cx="246" cy="127" r="5.5" fill="#1a120a" stroke="#d9b45f" stroke-width="1.8"/><line x1="243" y1="127" x2="249" y2="127" stroke="#d9b45f" stroke-width="1"/><line x1="246" y1="124" x2="246" y2="130" stroke="#d9b45f" stroke-width="1"/><circle cx="268" cy="127" r="5.5" fill="#1a120a" stroke="#d9b45f" stroke-width="1.8"/><line x1="265" y1="127" x2="271" y2="127" stroke="#d9b45f" stroke-width="1"/><line x1="268" y1="124" x2="268" y2="130" stroke="#d9b45f" stroke-width="1"/><circle cx="290" cy="127" r="5.5" fill="#1a120a" stroke="#d9b45f" stroke-width="1.8"/><line x1="287" y1="127" x2="293" y2="127" stroke="#d9b45f" stroke-width="1"/><line x1="290" y1="124" x2="290" y2="130" stroke="#d9b45f" stroke-width="1"/><circle cx="312" cy="127" r="5.5" fill="#1a120a" stroke="#d9b45f" stroke-width="1.8"/><line x1="309" y1="127" x2="315" y2="127" stroke="#d9b45f" stroke-width="1"/><line x1="312" y1="124" x2="312" y2="130" stroke="#d9b45f" stroke-width="1"/><circle cx="334" cy="127" r="5.5" fill="#1a120a" stroke="#d9b45f" stroke-width="1.8"/><line x1="331" y1="127" x2="337" y2="127" stroke="#d9b45f" stroke-width="1"/><line x1="334" y1="124" x2="334" y2="130" stroke="#d9b45f" stroke-width="1"/><circle cx="356" cy="127" r="5.5" fill="#1a120a" stroke="#d9b45f" stroke-width="1.8"/><line x1="353" y1="127" x2="359" y2="127" stroke="#d9b45f" stroke-width="1"/><line x1="356" y1="124" x2="356" y2="130" stroke="#d9b45f" stroke-width="1"/><circle cx="378" cy="127" r="5.5" fill="#1a120a" stroke="#d9b45f" stroke-width="1.8"/><line x1="375" y1="127" x2="381" y2="127" stroke="#d9b45f" stroke-width="1"/><line x1="378" y1="124" x2="378" y2="130" stroke="#d9b45f" stroke-width="1"/><circle cx="408" cy="127" r="8" fill="#efe3c2" stroke="#241407" stroke-width="2"/><line x1="403.6" y1="130.2" x2="408" y2="127" stroke="#8e2f22" stroke-width="1.6"/><line x1="408" y1="127" x2="410.8" y2="122.6" stroke="#241407" stroke-width="1.4"/><circle cx="408" cy="127" r="1.6" fill="#241407"/><text x="570" y="132" text-anchor="end" font-family="'Georgia','Times New Roman',serif" font-size="13" font-weight="bold" fill="#241407">QFX5200</text><rect x="82" y="144" width="500" height="34" fill="#5e8f7a" stroke="#241407" stroke-width="3"/><circle cx="102" cy="159" r="5.6" fill="none" stroke="#d9b45f" stroke-width="2"/><circle cx="102" cy="159" r="3.4" fill="#1a120a" stroke="#241407" stroke-width="1"/><circle cx="126.21052631578948" cy="159" r="5.6" fill="none" stroke="#d9b45f" stroke-width="2"/><circle cx="126.21052631578948" cy="159" r="3.4" fill="#1a120a" stroke="#241407" stroke-width="1"/><circle cx="150.42105263157896" cy="159" r="5.6" fill="none" stroke="#d9b45f" stroke-width="2"/><circle cx="150.42105263157896" cy="159" r="3.4" fill="#1a120a" stroke="#241407" stroke-width="1"/><circle cx="174.6315789473684" cy="159" r="5.6" fill="none" stroke="#d9b45f" stroke-width="2"/><circle cx="174.6315789473684" cy="159" r="3.4" fill="#1a120a" stroke="#241407" stroke-width="1"/><circle cx="198.8421052631579" cy="159" r="5.6" fill="none" stroke="#d9b45f" stroke-width="2"/><circle cx="198.8421052631579" cy="159" r="3.4" fill="#1a120a" stroke="#241407" stroke-width="1"/><circle cx="223.05263157894737" cy="159" r="5.6" fill="none" stroke="#d9b45f" stroke-width="2"/><circle cx="223.05263157894737" cy="159" r="3.4" fill="#1a120a" stroke="#241407" stroke-width="1"/><circle cx="247.26315789473682" cy="159" r="5.6" fill="none" stroke="#d9b45f" stroke-width="2"/><circle cx="247.26315789473682" cy="159" r="3.4" fill="#1a120a" stroke="#241407" stroke-width="1"/><circle cx="271.4736842105263" cy="159" r="5.6" fill="none" stroke="#d9b45f" stroke-width="2"/><circle cx="271.4736842105263" cy="159" r="3.4" fill="#1a120a" stroke="#241407" stroke-width="1"/><circle cx="295.6842105263158" cy="159" r="5.6" fill="none" stroke="#d9b45f" stroke-width="2"/><circle cx="295.6842105263158" cy="159" r="3.4" fill="#1a120a" stroke="#241407" stroke-width="1"/><circle cx="319.89473684210526" cy="159" r="5.6" fill="none" stroke="#d9b45f" stroke-width="2"/><circle cx="319.89473684210526" cy="159" r="3.4" fill="#1a120a" stroke="#241407" stroke-width="1"/><circle cx="344.10526315789474" cy="159" r="5.6" fill="none" stroke="#d9b45f" stroke-width="2"/><circle cx="344.10526315789474" cy="159" r="3.4" fill="#1a120a" stroke="#241407" stroke-width="1"/><circle cx="368.3157894736842" cy="159" r="5.6" fill="none" stroke="#d9b45f" stroke-width="2"/><circle cx="368.3157894736842" cy="159" r="3.4" fill="#1a120a" stroke="#241407" stroke-width="1"/><circle cx="392.52631578947364" cy="159" r="5.6" fill="none" stroke="#d9b45f" stroke-width="2"/><circle cx="392.52631578947364" cy="159" r="3.4" fill="#1a120a" stroke="#241407" stroke-width="1"/><circle cx="416.7368421052631" cy="159" r="5.6" fill="none" stroke="#d9b45f" stroke-width="2"/><circle cx="416.7368421052631" cy="159" r="3.4" fill="#1a120a" stroke="#241407" stroke-width="1"/><circle cx="440.9473684210526" cy="159" r="5.6" fill="none" stroke="#d9b45f" stroke-width="2"/><circle cx="440.9473684210526" cy="159" r="3.4" fill="#1a120a" stroke="#241407" stroke-width="1"/><circle cx="465.1578947368421" cy="159" r="5.6" fill="none" stroke="#d9b45f" stroke-width="2"/><circle cx="465.1578947368421" cy="159" r="3.4" fill="#1a120a" stroke="#241407" stroke-width="1"/><circle cx="489.36842105263156" cy="159" r="5.6" fill="none" stroke="#d9b45f" stroke-width="2"/><circle cx="489.36842105263156" cy="159" r="3.4" fill="#1a120a" stroke="#241407" stroke-width="1"/><circle cx="513.578947368421" cy="159" r="5.6" fill="none" stroke="#d9b45f" stroke-width="2"/><circle cx="513.578947368421" cy="159" r="3.4" fill="#1a120a" stroke="#241407" stroke-width="1"/><circle cx="537.7894736842105" cy="159" r="5.6" fill="none" stroke="#d9b45f" stroke-width="2"/><circle cx="537.7894736842105" cy="159" r="3.4" fill="#1a120a" stroke="#241407" stroke-width="1"/><circle cx="562" cy="159" r="5.6" fill="none" stroke="#d9b45f" stroke-width="2"/><circle cx="562" cy="159" r="3.4" fill="#1a120a" stroke="#241407" stroke-width="1"/><rect x="82" y="178" width="500" height="34" fill="#8a5a33" stroke="#241407" stroke-width="3"/><line x1="92" y1="184" x2="92" y2="198" stroke="#241407" stroke-width="1.5" opacity="0.6"/><line x1="97" y1="184" x2="97" y2="198" stroke="#241407" stroke-width="1.5" opacity="0.6"/><line x1="102" y1="184" x2="102" y2="198" stroke="#241407" stroke-width="1.5" opacity="0.6"/><line x1="107" y1="184" x2="107" y2="198" stroke="#241407" stroke-width="1.5" opacity="0.6"/><line x1="112" y1="184" x2="112" y2="198" stroke="#241407" stroke-width="1.5" opacity="0.6"/><line x1="117" y1="184" x2="117" y2="198" stroke="#241407" stroke-width="1.5" opacity="0.6"/><line x1="122" y1="184" x2="122" y2="198" stroke="#241407" stroke-width="1.5" opacity="0.6"/><line x1="127" y1="184" x2="127" y2="198" stroke="#241407" stroke-width="1.5" opacity="0.6"/><line x1="132" y1="184" x2="132" y2="198" stroke="#241407" stroke-width="1.5" opacity="0.6"/><line x1="137" y1="184" x2="137" y2="198" stroke="#241407" stroke-width="1.5" opacity="0.6"/><line x1="142" y1="184" x2="142" y2="198" stroke="#241407" stroke-width="1.5" opacity="0.6"/><line x1="147" y1="184" x2="147" y2="198" stroke="#241407" stroke-width="1.5" opacity="0.6"/><line x1="152" y1="184" x2="152" y2="198" stroke="#241407" stroke-width="1.5" opacity="0.6"/><line x1="157" y1="184" x2="157" y2="198" stroke="#241407" stroke-width="1.5" opacity="0.6"/><line x1="162" y1="184" x2="162" y2="198" stroke="#241407" stroke-width="1.5" opacity="0.6"/><line x1="167" y1="184" x2="167" y2="198" stroke="#241407" stroke-width="1.5" opacity="0.6"/><line x1="172" y1="184" x2="172" y2="198" stroke="#241407" stroke-width="1.5" opacity="0.6"/><line x1="177" y1="184" x2="177" y2="198" stroke="#241407" stroke-width="1.5" opacity="0.6"/><line x1="182" y1="184" x2="182" y2="198" stroke="#241407" stroke-width="1.5" opacity="0.6"/><line x1="187" y1="184" x2="187" y2="198" stroke="#241407" stroke-width="1.5" opacity="0.6"/><line x1="192" y1="184" x2="192" y2="198" stroke="#241407" stroke-width="1.5" opacity="0.6"/><line x1="197" y1="184" x2="197" y2="198" stroke="#241407" stroke-width="1.5" opacity="0.6"/><line x1="202" y1="184" x2="202" y2="198" stroke="#241407" stroke-width="1.5" opacity="0.6"/><line x1="207" y1="184" x2="207" y2="198" stroke="#241407" stroke-width="1.5" opacity="0.6"/><line x1="212" y1="184" x2="212" y2="198" stroke="#241407" stroke-width="1.5" opacity="0.6"/><line x1="217" y1="184" x2="217" y2="198" stroke="#241407" stroke-width="1.5" opacity="0.6"/><line x1="222" y1="184" x2="222" y2="198" stroke="#241407" stroke-width="1.5" opacity="0.6"/><line x1="227" y1="184" x2="227" y2="198" stroke="#241407" stroke-width="1.5" opacity="0.6"/><line x1="232" y1="184" x2="232" y2="198" stroke="#241407" stroke-width="1.5" opacity="0.6"/><line x1="237" y1="184" x2="237" y2="198" stroke="#241407" stroke-width="1.5" opacity="0.6"/><line x1="242" y1="184" x2="242" y2="198" stroke="#241407" stroke-width="1.5" opacity="0.6"/><line x1="247" y1="184" x2="247" y2="198" stroke="#241407" stroke-width="1.5" opacity="0.6"/><line x1="252" y1="184" x2="252" y2="198" stroke="#241407" stroke-width="1.5" opacity="0.6"/><line x1="257" y1="184" x2="257" y2="198" stroke="#241407" stroke-width="1.5" opacity="0.6"/><line x1="262" y1="184" x2="262" y2="198" stroke="#241407" stroke-width="1.5" opacity="0.6"/><line x1="267" y1="184" x2="267" y2="198" stroke="#241407" stroke-width="1.5" opacity="0.6"/><line x1="272" y1="184" x2="272" y2="198" stroke="#241407" stroke-width="1.5" opacity="0.6"/><line x1="277" y1="184" x2="277" y2="198" stroke="#241407" stroke-width="1.5" opacity="0.6"/><line x1="282" y1="184" x2="282" y2="198" stroke="#241407" stroke-width="1.5" opacity="0.6"/><line x1="287" y1="184" x2="287" y2="198" stroke="#241407" stroke-width="1.5" opacity="0.6"/><line x1="292" y1="184" x2="292" y2="198" stroke="#241407" stroke-width="1.5" opacity="0.6"/><line x1="297" y1="184" x2="297" y2="198" stroke="#241407" stroke-width="1.5" opacity="0.6"/><line x1="302" y1="184" x2="302" y2="198" stroke="#241407" stroke-width="1.5" opacity="0.6"/><line x1="307" y1="184" x2="307" y2="198" stroke="#241407" stroke-width="1.5" opacity="0.6"/><line x1="312" y1="184" x2="312" y2="198" stroke="#241407" stroke-width="1.5" opacity="0.6"/><line x1="317" y1="184" x2="317" y2="198" stroke="#241407" stroke-width="1.5" opacity="0.6"/><line x1="322" y1="184" x2="322" y2="198" stroke="#241407" stroke-width="1.5" opacity="0.6"/><line x1="327" y1="184" x2="327" y2="198" stroke="#241407" stroke-width="1.5" opacity="0.6"/><line x1="332" y1="184" x2="332" y2="198" stroke="#241407" stroke-width="1.5" opacity="0.6"/><line x1="337" y1="184" x2="337" y2="198" stroke="#241407" stroke-width="1.5" opacity="0.6"/><line x1="342" y1="184" x2="342" y2="198" stroke="#241407" stroke-width="1.5" opacity="0.6"/><line x1="347" y1="184" x2="347" y2="198" stroke="#241407" stroke-width="1.5" opacity="0.6"/><line x1="352" y1="184" x2="352" y2="198" stroke="#241407" stroke-width="1.5" opacity="0.6"/><line x1="357" y1="184" x2="357" y2="198" stroke="#241407" stroke-width="1.5" opacity="0.6"/><line x1="362" y1="184" x2="362" y2="198" stroke="#241407" stroke-width="1.5" opacity="0.6"/><line x1="367" y1="184" x2="367" y2="198" stroke="#241407" stroke-width="1.5" opacity="0.6"/><line x1="372" y1="184" x2="372" y2="198" stroke="#241407" stroke-width="1.5" opacity="0.6"/><line x1="377" y1="184" x2="377" y2="198" stroke="#241407" stroke-width="1.5" opacity="0.6"/><line x1="382" y1="184" x2="382" y2="198" stroke="#241407" stroke-width="1.5" opacity="0.6"/><line x1="387" y1="184" x2="387" y2="198" stroke="#241407" stroke-width="1.5" opacity="0.6"/><line x1="392" y1="184" x2="392" y2="198" stroke="#241407" stroke-width="1.5" opacity="0.6"/><line x1="397" y1="184" x2="397" y2="198" stroke="#241407" stroke-width="1.5" opacity="0.6"/><line x1="402" y1="184" x2="402" y2="198" stroke="#241407" stroke-width="1.5" opacity="0.6"/><line x1="407" y1="184" x2="407" y2="198" stroke="#241407" stroke-width="1.5" opacity="0.6"/><line x1="412" y1="184" x2="412" y2="198" stroke="#241407" stroke-width="1.5" opacity="0.6"/><line x1="417" y1="184" x2="417" y2="198" stroke="#241407" stroke-width="1.5" opacity="0.6"/><line x1="422" y1="184" x2="422" y2="198" stroke="#241407" stroke-width="1.5" opacity="0.6"/><line x1="427" y1="184" x2="427" y2="198" stroke="#241407" stroke-width="1.5" opacity="0.6"/><line x1="432" y1="184" x2="432" y2="198" stroke="#241407" stroke-width="1.5" opacity="0.6"/><line x1="437" y1="184" x2="437" y2="198" stroke="#241407" stroke-width="1.5" opacity="0.6"/><line x1="442" y1="184" x2="442" y2="198" stroke="#241407" stroke-width="1.5" opacity="0.6"/><line x1="447" y1="184" x2="447" y2="198" stroke="#241407" stroke-width="1.5" opacity="0.6"/><line x1="452" y1="184" x2="452" y2="198" stroke="#241407" stroke-width="1.5" opacity="0.6"/><line x1="457" y1="184" x2="457" y2="198" stroke="#241407" stroke-width="1.5" opacity="0.6"/><line x1="462" y1="184" x2="462" y2="198" stroke="#241407" stroke-width="1.5" opacity="0.6"/><line x1="467" y1="184" x2="467" y2="198" stroke="#241407" stroke-width="1.5" opacity="0.6"/><line x1="472" y1="184" x2="472" y2="198" stroke="#241407" stroke-width="1.5" opacity="0.6"/><line x1="477" y1="184" x2="477" y2="198" stroke="#241407" stroke-width="1.5" opacity="0.6"/><line x1="482" y1="184" x2="482" y2="198" stroke="#241407" stroke-width="1.5" opacity="0.6"/><line x1="487" y1="184" x2="487" y2="198" stroke="#241407" stroke-width="1.5" opacity="0.6"/><line x1="492" y1="184" x2="492" y2="198" stroke="#241407" stroke-width="1.5" opacity="0.6"/><line x1="497" y1="184" x2="497" y2="198" stroke="#241407" stroke-width="1.5" opacity="0.6"/><line x1="502" y1="184" x2="502" y2="198" stroke="#241407" stroke-width="1.5" opacity="0.6"/><line x1="507" y1="184" x2="507" y2="198" stroke="#241407" stroke-width="1.5" opacity="0.6"/><line x1="512" y1="184" x2="512" y2="198" stroke="#241407" stroke-width="1.5" opacity="0.6"/><line x1="517" y1="184" x2="517" y2="198" stroke="#241407" stroke-width="1.5" opacity="0.6"/><line x1="522" y1="184" x2="522" y2="198" stroke="#241407" stroke-width="1.5" opacity="0.6"/><line x1="527" y1="184" x2="527" y2="198" stroke="#241407" stroke-width="1.5" opacity="0.6"/><line x1="532" y1="184" x2="532" y2="198" stroke="#241407" stroke-width="1.5" opacity="0.6"/><line x1="537" y1="184" x2="537" y2="198" stroke="#241407" stroke-width="1.5" opacity="0.6"/><line x1="542" y1="184" x2="542" y2="198" stroke="#241407" stroke-width="1.5" opacity="0.6"/><line x1="547" y1="184" x2="547" y2="198" stroke="#241407" stroke-width="1.5" opacity="0.6"/><line x1="552" y1="184" x2="552" y2="198" stroke="#241407" stroke-width="1.5" opacity="0.6"/><line x1="557" y1="184" x2="557" y2="198" stroke="#241407" stroke-width="1.5" opacity="0.6"/><line x1="562" y1="184" x2="562" y2="198" stroke="#241407" stroke-width="1.5" opacity="0.6"/><line x1="567" y1="184" x2="567" y2="198" stroke="#241407" stroke-width="1.5" opacity="0.6"/><line x1="572" y1="184" x2="572" y2="198" stroke="#241407" stroke-width="1.5" opacity="0.6"/><rect x="82" y="212" width="500" height="68" fill="url(#spPlate)" stroke="#241407" stroke-width="3"/><rect x="82" y="212" width="64" height="68" fill="#b98a3d" stroke="#241407" stroke-width="3"/><circle cx="114" cy="246" r="2.4" fill="#d9b45f" stroke="#241407" stroke-width="1.1"/><circle cx="89" cy="219" r="2.2" fill="#d9b45f" stroke="#241407" stroke-width="1.2"/><circle cx="575" cy="219" r="2.2" fill="#d9b45f" stroke="#241407" stroke-width="1.2"/><circle cx="89" cy="273" r="2.2" fill="#d9b45f" stroke="#241407" stroke-width="1.2"/><circle cx="575" cy="273" r="2.2" fill="#d9b45f" stroke="#241407" stroke-width="1.2"/><rect x="160" y="219" width="66" height="54" rx="2" fill="url(#spCopper)" stroke="#241407" stroke-width="1.8"/><circle cx="166" cy="224" r="1.6" fill="#d9b45f" stroke="#241407" stroke-width="0.8"/><circle cx="220" cy="268" r="1.6" fill="#d9b45f" stroke="#241407" stroke-width="0.8"/><circle cx="216" cy="246" r="2.4" fill="#ffb84d" stroke="#241407" stroke-width="1"/><rect x="234" y="219" width="66" height="54" rx="2" fill="url(#spCopper)" stroke="#241407" stroke-width="1.8"/><circle cx="240" cy="224" r="1.6" fill="#d9b45f" stroke="#241407" stroke-width="0.8"/><circle cx="294" cy="268" r="1.6" fill="#d9b45f" stroke="#241407" stroke-width="0.8"/><circle cx="290" cy="246" r="2.4" fill="#ffb84d" stroke="#241407" stroke-width="1"/><rect x="308" y="219" width="66" height="54" rx="2" fill="url(#spCopper)" stroke="#241407" stroke-width="1.8"/><circle cx="314" cy="224" r="1.6" fill="#d9b45f" stroke="#241407" stroke-width="0.8"/><circle cx="368" cy="268" r="1.6" fill="#d9b45f" stroke="#241407" stroke-width="0.8"/><circle cx="364" cy="246" r="2.4" fill="#ffb84d" stroke="#241407" stroke-width="1"/><rect x="382" y="219" width="66" height="54" rx="2" fill="url(#spCopper)" stroke="#241407" stroke-width="1.8"/><circle cx="388" cy="224" r="1.6" fill="#d9b45f" stroke="#241407" stroke-width="0.8"/><circle cx="442" cy="268" r="1.6" fill="#d9b45f" stroke="#241407" stroke-width="0.8"/><circle cx="438" cy="246" r="2.4" fill="#ffb84d" stroke="#241407" stroke-width="1"/><text x="570" y="251" text-anchor="end" font-family="'Georgia','Times New Roman',serif" font-size="13" font-weight="bold" fill="#241407">web01</text><rect x="82" y="280" width="500" height="68" fill="url(#spPlate)" stroke="#241407" stroke-width="3"/><rect x="82" y="280" width="64" height="68" fill="#6e7f8f" stroke="#241407" stroke-width="3"/><circle cx="114" cy="314" r="2.4" fill="#d9b45f" stroke="#241407" stroke-width="1.1"/><circle cx="89" cy="287" r="2.2" fill="#d9b45f" stroke="#241407" stroke-width="1.2"/><circle cx="575" cy="287" r="2.2" fill="#d9b45f" stroke="#241407" stroke-width="1.2"/><circle cx="89" cy="341" r="2.2" fill="#d9b45f" stroke="#241407" stroke-width="1.2"/><circle cx="575" cy="341" r="2.2" fill="#d9b45f" stroke="#241407" stroke-width="1.2"/><rect x="160" y="284" width="68" height="12" rx="1.5" fill="url(#spPlate)" stroke="#241407" stroke-width="1.4"/><circle cx="194" cy="290" r="1.8" fill="#3c2716" stroke="#241407" stroke-width="0.8"/><circle cx="220" cy="290" r="1.6" fill="#8e2f22" stroke="#241407" stroke-width="0.8"/><rect x="234" y="284" width="68" height="12" rx="1.5" fill="url(#spPlate)" stroke="#241407" stroke-width="1.4"/><circle cx="268" cy="290" r="1.8" fill="#3c2716" stroke="#241407" stroke-width="0.8"/><circle cx="294" cy="290" r="1.6" fill="#ffb84d" stroke="#241407" stroke-width="0.8"/><rect x="308" y="284" width="68" height="12" rx="1.5" fill="url(#spPlate)" stroke="#241407" stroke-width="1.4"/><circle cx="342" cy="290" r="1.8" fill="#3c2716" stroke="#241407" stroke-width="0.8"/><circle cx="368" cy="290" r="1.6" fill="#ffb84d" stroke="#241407" stroke-width="0.8"/><rect x="382" y="284" width="68" height="12" rx="1.5" fill="url(#spPlate)" stroke="#241407" stroke-width="1.4"/><circle cx="416" cy="290" r="1.8" fill="#3c2716" stroke="#241407" stroke-width="0.8"/><circle cx="442" cy="290" r="1.6" fill="#8e2f22" stroke="#241407" stroke-width="0.8"/><rect x="160" y="299" width="68" height="12" rx="1.5" fill="url(#spPlate)" stroke="#241407" stroke-width="1.4"/><circle cx="194" cy="305" r="1.8" fill="#3c2716" stroke="#241407" stroke-width="0.8"/><circle cx="220" cy="305" r="1.6" fill="#ffb84d" stroke="#241407" stroke-width="0.8"/><rect x="234" y="299" width="68" height="12" rx="1.5" fill="url(#spPlate)" stroke="#241407" stroke-width="1.4"/><circle cx="268" cy="305" r="1.8" fill="#3c2716" stroke="#241407" stroke-width="0.8"/><circle cx="294" cy="305" r="1.6" fill="#ffb84d" stroke="#241407" stroke-width="0.8"/><rect x="308" y="299" width="68" height="12" rx="1.5" fill="url(#spPlate)" stroke="#241407" stroke-width="1.4"/><circle cx="342" cy="305" r="1.8" fill="#3c2716" stroke="#241407" stroke-width="0.8"/><circle cx="368" cy="305" r="1.6" fill="#8e2f22" stroke="#241407" stroke-width="0.8"/><rect x="382" y="299" width="68" height="12" rx="1.5" fill="url(#spPlate)" stroke="#241407" stroke-width="1.4"/><circle cx="416" cy="305" r="1.8" fill="#3c2716" stroke="#241407" stroke-width="0.8"/><circle cx="442" cy="305" r="1.6" fill="#ffb84d" stroke="#241407" stroke-width="0.8"/><rect x="160" y="318" width="68" height="12" rx="1.5" fill="url(#spPlate)" stroke="#241407" stroke-width="1.4"/><circle cx="194" cy="324" r="1.8" fill="#3c2716" stroke="#241407" stroke-width="0.8"/><circle cx="220" cy="324" r="1.6" fill="#ffb84d" stroke="#241407" stroke-width="0.8"/><rect x="234" y="318" width="68" height="12" rx="1.5" fill="url(#spPlate)" stroke="#241407" stroke-width="1.4"/><circle cx="268" cy="324" r="1.8" fill="#3c2716" stroke="#241407" stroke-width="0.8"/><circle cx="294" cy="324" r="1.6" fill="#8e2f22" stroke="#241407" stroke-width="0.8"/><rect x="308" y="318" width="68" height="12" rx="1.5" fill="url(#spPlate)" stroke="#241407" stroke-width="1.4"/><circle cx="342" cy="324" r="1.8" fill="#3c2716" stroke="#241407" stroke-width="0.8"/><circle cx="368" cy="324" r="1.6" fill="#ffb84d" stroke="#241407" stroke-width="0.8"/><rect x="382" y="318" width="68" height="12" rx="1.5" fill="url(#spPlate)" stroke="#241407" stroke-width="1.4"/><circle cx="416" cy="324" r="1.8" fill="#3c2716" stroke="#241407" stroke-width="0.8"/><circle cx="442" cy="324" r="1.6" fill="#ffb84d" stroke="#241407" stroke-width="0.8"/><rect x="160" y="333" width="68" height="12" rx="1.5" fill="url(#spPlate)" stroke="#241407" stroke-width="1.4"/><circle cx="194" cy="339" r="1.8" fill="#3c2716" stroke="#241407" stroke-width="0.8"/><circle cx="220" cy="339" r="1.6" fill="#8e2f22" stroke="#241407" stroke-width="0.8"/><rect x="234" y="333" width="68" height="12" rx="1.5" fill="url(#spPlate)" stroke="#241407" stroke-width="1.4"/><circle cx="268" cy="339" r="1.8" fill="#3c2716" stroke="#241407" stroke-width="0.8"/><circle cx="294" cy="339" r="1.6" fill="#ffb84d" stroke="#241407" stroke-width="0.8"/><rect x="308" y="333" width="68" height="12" rx="1.5" fill="url(#spPlate)" stroke="#241407" stroke-width="1.4"/><circle cx="342" cy="339" r="1.8" fill="#3c2716" stroke="#241407" stroke-width="0.8"/><circle cx="368" cy="339" r="1.6" fill="#ffb84d" stroke="#241407" stroke-width="0.8"/><rect x="382" y="333" width="68" height="12" rx="1.5" fill="url(#spPlate)" stroke="#241407" stroke-width="1.4"/><circle cx="416" cy="339" r="1.8" fill="#3c2716" stroke="#241407" stroke-width="0.8"/><circle cx="442" cy="339" r="1.6" fill="#8e2f22" stroke="#241407" stroke-width="0.8"/><text x="570" y="319" text-anchor="end" font-family="'Georgia','Times New Roman',serif" font-size="13" font-weight="bold" fill="#241407">SAN</text><rect x="82" y="348" width="500" height="34" fill="url(#spPlate)" stroke="#241407" stroke-width="3"/><rect x="82" y="348" width="34" height="34" fill="#a3541f" stroke="#241407" stroke-width="3"/><circle cx="99" cy="365" r="2.4" fill="#d9b45f" stroke="#241407" stroke-width="1.1"/><circle cx="89" cy="355" r="2.2" fill="#d9b45f" stroke="#241407" stroke-width="1.2"/><circle cx="575" cy="355" r="2.2" fill="#d9b45f" stroke="#241407" stroke-width="1.2"/><circle cx="89" cy="375" r="2.2" fill="#d9b45f" stroke="#241407" stroke-width="1.2"/><circle cx="575" cy="375" r="2.2" fill="#d9b45f" stroke="#241407" stroke-width="1.2"/><circle cx="145" cy="365" r="11" fill="#efe3c2" stroke="#241407" stroke-width="2"/><line x1="138.95" y1="369.4" x2="145" y2="365" stroke="#8e2f22" stroke-width="1.6"/><line x1="145" y1="365" x2="148.85" y2="358.95" stroke="#241407" stroke-width="1.4"/><circle cx="145" cy="365" r="1.6" fill="#241407"/><circle cx="185" cy="365" r="11" fill="#efe3c2" stroke="#241407" stroke-width="2"/><line x1="178.95" y1="369.4" x2="185" y2="365" stroke="#8e2f22" stroke-width="1.6"/><line x1="185" y1="365" x2="188.85" y2="358.95" stroke="#241407" stroke-width="1.4"/><circle cx="185" cy="365" r="1.6" fill="#241407"/><circle cx="225" cy="365" r="11" fill="#efe3c2" stroke="#241407" stroke-width="2"/><line x1="218.95" y1="369.4" x2="225" y2="365" stroke="#8e2f22" stroke-width="1.6"/><line x1="225" y1="365" x2="228.85" y2="358.95" stroke="#241407" stroke-width="1.4"/><circle cx="225" cy="365" r="1.6" fill="#241407"/><text x="570" y="370" text-anchor="end" font-family="'Georgia','Times New Roman',serif" font-size="13" font-weight="bold" fill="#241407">PDU</text></svg>