<svg xmlns="http://www.w3.org/2000/svg" width="648" height="424" viewBox="0 0 648 424" role="img" aria-label="Futurama Style"><defs>
<linearGradient id="fzBg" x1="0" y1="0" x2="0" y2="1"><stop offset="0" stop-color="#16313a"/><stop offset="1" stop-color="#0c1a20"/></linearGradient>
<linearGradient id="fzChrome" x1="0" y1="0" x2="1" y2="0"><stop offset="0" stop-color="#e8ecef"/><stop offset="0.5" stop-color="#aeb8bf"/><stop offset="1" stop-color="#dde3e7"/></linearGradient>
<linearGradient id="fzBay" x1="0" y1="0" x2="0" y2="1"><stop offset="0" stop-color="#f2f5f7"/><stop offset="0.55" stop-color="#b5bfc6"/><stop offset="1" stop-color="#e2e7ea"/></linearGradient>
</defs><rect x="0" y="0" width="648" height="424" fill="url(#fzBg)"/><rect x="144" y="16" width="360" height="54" rx="14" fill="#2fb5a3" stroke="#1b1b22" stroke-width="3.2"/><text x="324" y="40" text-anchor="middle" font-family="'Verdana','DejaVu Sans',sans-serif" font-size="19" font-weight="bold" fill="#f4fbf9">Futurama Style</text><text x="324" y="59" text-anchor="middle" font-family="'Verdana','DejaVu Sans',sans-serif" font-size="10.5" letter-spacing="2.5" fill="#d6f2ec">8 UNITS</text><rect x="32" y="82" width="584" height="300" rx="12" fill="#d9cdb0" stroke="#1b1b22" stroke-width="3.2"/><rect x="74" y="96" width="500" height="272" fill="#101c22" stroke="#1b1b22" stroke-width="3.2"/><rect x="40" y="96" width="34" height="272" fill="url(#fzChrome)" stroke="#1b1b22" stroke-width="2.4"/><rect x="574" y="96" width="34" height="272" fill="url(#fzChrome)" stroke="#1b1b22" stroke-width="2.4"/><circle cx="57" cy="113" r="3" fill="#8f979e" stroke="#1b1b22" stroke-width="1.4"/><circle cx="591" cy="113" r="3" fill="#8f979e" stroke="#1b1b22" stroke-width="1.4"/><text x="27" y="116.5" text-anchor="end" font-family="'Verdana','DejaVu Sans',sans-serif" font-size="10" fill="#7fa3ad">8</text><circle cx="57" cy="147" r="3" fill="#8f979e" stroke="#1b1b22" stroke-width="1.4"/><circle cx="591" cy="147" r="3" fill="#8f979e" stroke="#1b1b22" stroke-width="1.4"/><text x="27" y="150.5" text-anchor="end" font-family="'Verdana','DejaVu Sans',sans-serif" font-size="10" fill="#7fa3ad">7</text><circle cx="57" cy="181" r="3" fill="#8f979e" stroke="#1b1b22" stroke-width="1.4"/><circle cx="591" cy="181" r="3" fill="#8f979e" stroke="#1b1b22" stroke-width="1.4"/><text x="27" y="184.5" text-anchor="end" font-family="'Verdana','DejaVu Sans',sans-serif" font-size="10" fill="#7fa3ad">6</text><circle cx="57" cy="215" r="3" fill="#8f979e" stroke="#1b1b22" stroke-width="1.4"/><circle cx="591" cy="215" r="3" fill="#8f979e" stroke="#1b1b22" stroke-width="1.4"/><text x="27" y="218.5" text-anchor="end" font-family="'Verdana','DejaVu Sans',sans-serif" font-size="10" fill="#7fa3ad">5</text><circle cx="57" cy="249" r="3" fill="#8f979e" stroke="#1b1b22" stroke-width="1.4"/><circle cx="591" cy="249" r="3" fill="#8f979e" stroke="#1b1b22" stroke-width="1.4"/><text x="27" y="252.5" text-anchor="end" font-family="'Verdana','DejaVu Sans',sans-serif" font-size="10" fill="#7fa3ad">4</text><circle cx="57" cy="283" r="3" fill="#8f979e" stroke="#1b1b22" stroke-width="1.4"/><circle cx="591" cy="283" r="3" fill="#8f979e" stroke="#1b1b22" stroke-width="1.4"/><text x="27" y="286.5" text-anchor="end" font-family="'Verdana','DejaVu Sans',sans-serif" font-size="10" fill="#7fa3ad">3</text><circle cx="57" cy="317" r="3" fill="#8f979e" stroke="#1b1b22" stroke-width="1.4"/><circle cx="591" cy="317" r="3" fill="#8f979e" stroke="#1b1b22" stroke-width="1.4"/><text x="27" y="320.5" text-anchor="end" font-family="'Verdana','DejaVu Sans',sans-serif" font-size="10" fill="#7fa3ad">2</text><circle cx="57" cy="351" r="3" fill="#8f979e" stroke="#1b1b22" stroke-width="1.4"/><circle cx="591" cy="351" r="3" fill="#8f979e" stroke="#1b1b22" stroke-width="1.4"/><text x="27" y="354.5" text-anchor="end" font-family="'Verdana','DejaVu Sans',sans-serif" font-size="10" fill="#7fa3ad">1</text><rect x="74" y="96" width="500" height="34" fill="#efe6cf" stroke="#1b1b22" stroke-width="3.2"/><rect x="74" y="96" width="34" height="34" fill="#3fa9e0" stroke="#1b1b22" stroke-width="3.2"/><line x1="82" y1="109" x2="100" y2="109" stroke="rgba(0,0,0,.28)" stroke-width="2"/><line x1="82" y1="117" x2="100" y2="117" stroke="rgba(0,0,0,.28)" stroke-width="2"/><rect x="120" y="107" width="16" height="12" rx="1.5" fill="#14181c" stroke="#1b1b22" stroke-width="1.4"/><rect x="140" y="107" width="16" height="12" rx="1.5" fill="#14181c" stroke="#1b1b22" stroke-width="1.4"/><rect x="160" y="107" width="16" height="12" rx="1.5" fill="#14181c" stroke="#1b1b22" stroke-width="1.4"/><rect x="180" y="107" width="16" height="12" rx="1.5" fill="#14181c" stroke="#1b1b22" stroke-width="1.4"/><rect x="200" y="107" width="16" height="12" rx="1.5" fill="#14181c" stroke="#1b1b22" stroke-width="1.4"/><rect x="220" y="107" width="16" height="12" rx="1.5" fill="#14181c" stroke="#1b1b22" stroke-width="1.4"/><rect x="240" y="107" width="16" height="12" rx="1.5" fill="#14181c" stroke="#1b1b22" stroke-width="1.4"/><rect x="260" y="107" width="16" height="12" rx="1.5" fill="#14181c" stroke="#1b1b22" stroke-width="1.4"/><rect x="280" y="107" width="16" height="12" rx="1.5" fill="#14181c" stroke="#1b1b22" stroke-width="1.4"/><rect x="300" y="107" width="16" height="12" rx="1.5" fill="#14181c" stroke="#1b1b22" stroke-width="1.4"/><rect x="320" y="107" width="16" height="12" rx="1.5" fill="#14181c" stroke="#1b1b22" stroke-width="1.4"/><rect x="340" y="107" width="16" height="12" rx="1.5" fill="#14181c" stroke="#1b1b22" stroke-width="1.4"/><rect x="360" y="107" width="16" height="12" rx="1.5" fill="#14181c" stroke="#1b1b22" stroke-width="1.4"/><rect x="380" y="107" width="16" height="12" rx="1.5" fill="#14181c" stroke="#1b1b22" stroke-width="1.4"/><circle cx="408" cy="113" r="4" fill="#7cf06f" stroke="#1b1b22" stroke-width="1.6"/><circle cx="424" cy="113" r="4" fill="#ffd24a" stroke="#1b1b22" stroke-width="1.6"/><text x="562" y="118" text-anchor="end" font-family="'Verdana','DejaVu Sans',sans-serif" font-size="13" font-weight="bold" fill="#1b1b22">QFX5200</text><rect x="74" y="130" width="500" height="34" fill="#8e6fc7" stroke="#1b1b22" stroke-width="3.2"/><circle cx="88.48" cy="138.5" r="1.8" fill="#ffd24a" stroke="#1b1b22" stroke-width="0.9"/><rect x="82.48" y="143" width="12" height="11" rx="1.5" fill="#14181c" stroke="#1b1b22" stroke-width="1.2"/><circle cx="108.96000000000001" cy="138.5" r="1.8" fill="#ffd24a" stroke="#1b1b22" stroke-width="0.9"/><rect x="102.96000000000001" y="143" width="12" height="11" rx="1.5" fill="#14181c" stroke="#1b1b22" stroke-width="1.2"/><circle cx="129.44" cy="138.5" r="1.8" fill="#ffd24a" stroke="#1b1b22" stroke-width="0.9"/><rect x="123.44" y="143" width="12" height="11" rx="1.5" fill="#14181c" stroke="#1b1b22" stroke-width="1.2"/><circle cx="149.92000000000002" cy="138.5" r="1.8" fill="#ffd24a" stroke="#1b1b22" stroke-width="0.9"/><rect x="143.92000000000002" y="143" width="12" height="11" rx="1.5" fill="#14181c" stroke="#1b1b22" stroke-width="1.2"/><circle cx="170.4" cy="138.5" r="1.8" fill="#ffd24a" stroke="#1b1b22" stroke-width="0.9"/><rect x="164.4" y="143" width="12" height="11" rx="1.5" fill="#14181c" stroke="#1b1b22" stroke-width="1.2"/><circle cx="190.88" cy="138.5" r="1.8" fill="#ffd24a" stroke="#1b1b22" stroke-width="0.9"/><rect x="184.88" y="143" width="12" height="11" rx="1.5" fill="#14181c" stroke="#1b1b22" stroke-width="1.2"/><circle cx="211.36" cy="138.5" r="1.8" fill="#ffd24a" stroke="#1b1b22" stroke-width="0.9"/><rect x="205.36" y="143" width="12" height="11" rx="1.5" fill="#14181c" stroke="#1b1b22" stroke-width="1.2"/><circle cx="231.84000000000003" cy="138.5" r="1.8" fill="#ffd24a" stroke="#1b1b22" stroke-width="0.9"/><rect x="225.84000000000003" y="143" width="12" height="11" rx="1.5" fill="#14181c" stroke="#1b1b22" stroke-width="1.2"/><circle cx="252.32" cy="138.5" r="1.8" fill="#ffd24a" stroke="#1b1b22" stroke-width="0.9"/><rect x="246.32" y="143" width="12" height="11" rx="1.5" fill="#14181c" stroke="#1b1b22" stroke-width="1.2"/><circle cx="272.8" cy="138.5" r="1.8" fill="#ffd24a" stroke="#1b1b22" stroke-width="0.9"/><rect x="266.8" y="143" width="12" height="11" rx="1.5" fill="#14181c" stroke="#1b1b22" stroke-width="1.2"/><circle cx="293.28000000000003" cy="138.5" r="1.8" fill="#ffd24a" stroke="#1b1b22" stroke-width="0.9"/><rect x="287.28000000000003" y="143" width="12" height="11" rx="1.5" fill="#14181c" stroke="#1b1b22" stroke-width="1.2"/><circle cx="313.76" cy="138.5" r="1.8" fill="#ffd24a" stroke="#1b1b22" stroke-width="0.9"/><rect x="307.76" y="143" width="12" height="11" rx="1.5" fill="#14181c" stroke="#1b1b22" stroke-width="1.2"/><circle cx="334.24" cy="138.5" r="1.8" fill="#ffd24a" stroke="#1b1b22" stroke-width="0.9"/><rect x="328.24" y="143" width="12" height="11" rx="1.5" fill="#14181c" stroke="#1b1b22" stroke-width="1.2"/><circle cx="354.72" cy="138.5" r="1.8" fill="#ffd24a" stroke="#1b1b22" stroke-width="0.9"/><rect x="348.72" y="143" width="12" height="11" rx="1.5" fill="#14181c" stroke="#1b1b22" stroke-width="1.2"/><circle cx="375.20000000000005" cy="138.5" r="1.8" fill="#ffd24a" stroke="#1b1b22" stroke-width="0.9"/><rect x="369.20000000000005" y="143" width="12" height="11" rx="1.5" fill="#14181c" stroke="#1b1b22" stroke-width="1.2"/><circle cx="395.68" cy="138.5" r="1.8" fill="#ffd24a" stroke="#1b1b22" stroke-width="0.9"/><rect x="389.68" y="143" width="12" height="11" rx="1.5" fill="#14181c" stroke="#1b1b22" stroke-width="1.2"/><circle cx="416.16" cy="138.5" r="1.8" fill="#ffd24a" stroke="#1b1b22" stroke-width="0.9"/><rect x="410.16" y="143" width="12" height="11" rx="1.5" fill="#14181c" stroke="#1b1b22" stroke-width="1.2"/><circle cx="436.64000000000004" cy="138.5" r="1.8" fill="#ffd24a" stroke="#1b1b22" stroke-width="0.9"/><rect x="430.64000000000004" y="143" width="12" height="11" rx="1.5" fill="#14181c" stroke="#1b1b22" stroke-width="1.2"/><circle cx="457.12" cy="138.5" r="1.8" fill="#ffd24a" stroke="#1b1b22" stroke-width="0.9"/><rect x="451.12" y="143" width="12" height="11" rx="1.5" fill="#14181c" stroke="#1b1b22" stroke-width="1.2"/><circle cx="477.6" cy="138.5" r="1.8" fill="#ffd24a" stroke="#1b1b22" stroke-width="0.9"/><rect x="471.6" y="143" width="12" height="11" rx="1.5" fill="#14181c" stroke="#1b1b22" stroke-width="1.2"/><circle cx="498.08000000000004" cy="138.5" r="1.8" fill="#ffd24a" stroke="#1b1b22" stroke-width="0.9"/><rect x="492.08000000000004" y="143" width="12" height="11" rx="1.5" fill="#14181c" stroke="#1b1b22" stroke-width="1.2"/><circle cx="518.56" cy="138.5" r="1.8" fill="#ffd24a" stroke="#1b1b22" stroke-width="0.9"/><rect x="512.56" y="143" width="12" height="11" rx="1.5" fill="#14181c" stroke="#1b1b22" stroke-width="1.2"/><circle cx="539.04" cy="138.5" r="1.8" fill="#ffd24a" stroke="#1b1b22" stroke-width="0.9"/><rect x="533.04" y="143" width="12" height="11" rx="1.5" fill="#14181c" stroke="#1b1b22" stroke-width="1.2"/><circle cx="559.52" cy="138.5" r="1.8" fill="#ffd24a" stroke="#1b1b22" stroke-width="0.9"/><rect x="553.52" y="143" width="12" height="11" rx="1.5" fill="#14181c" stroke="#1b1b22" stroke-width="1.2"/><rect x="74" y="164" width="500" height="34" fill="#b3a37e" stroke="#1b1b22" stroke-width="3.2"/><line x1="84" y1="170" x2="84" y2="184" stroke="#2a2a30" stroke-width="1.6" opacity="0.75"/><line x1="89" y1="170" x2="89" y2="184" stroke="#2a2a30" stroke-width="1.6" opacity="0.75"/><line x1="94" y1="170" x2="94" y2="184" stroke="#2a2a30" stroke-width="1.6" opacity="0.75"/><line x1="99" y1="170" x2="99" y2="184" stroke="#2a2a30" stroke-width="1.6" opacity="0.75"/><line x1="104" y1="170" x2="104" y2="184" stroke="#2a2a30" stroke-width="1.6" opacity="0.75"/><line x1="109" y1="170" x2="109" y2="184" stroke="#2a2a30" stroke-width="1.6" opacity="0.75"/><line x1="114" y1="170" x2="114" y2="184" stroke="#2a2a30" stroke-width="1.6" opacity="0.75"/><line x1="119" y1="170" x2="119" y2="184" stroke="#2a2a30" stroke-width="1.6" opacity="0.75"/><line x1="124" y1="170" x2="124" y2="184" stroke="#2a2a30" stroke-width="1.6" opacity="0.75"/><line x1="129" y1="170" x2="129" y2="184" stroke="#2a2a30" stroke-width="1.6" opacity="0.75"/><line x1="134" y1="170" x2="134" y2="184" stroke="#2a2a30" stroke-width="1.6" opacity="0.75"/><line x1="139" y1="170" x2="139" y2="184" stroke="#2a2a30" stroke-width="1.6" opacity="0.75"/><line x1="144" y1="170" x2="144" y2="184" stroke="#2a2a30" stroke-width="1.6" opacity="0.75"/><line x1="149" y1="170" x2="149" y2="184" stroke="#2a2a30" stroke-width="1.6" opacity="0.75"/><line x1="154" y1="170" x2="154" y2="184" stroke="#2a2a30" stroke-width="1.6" opacity="0.75"/><line x1="159" y1="170" x2="159" y2="184" stroke="#2a2a30" stroke-width="1.6" opacity="0.75"/><line x1="164" y1="170" x2="164" y2="184" stroke="#2a2a30" stroke-width="1.6" opacity="0.75"/><line x1="169" y1="170" x2="169" y2="184" stroke="#2a2a30" stroke-width="1.6" opacity="0.75"/><line x1="174" y1="170" x2="174" y2="184" stroke="#2a2a30" stroke-width="1.6" opacity="0.75"/><line x1="179" y1="170" x2="179" y2="184" stroke="#2a2a30" stroke-width="1.6" opacity="0.75"/><line x1="184" y1="170" x2="184" y2="184" stroke="#2a2a30" stroke-width="1.6" opacity="0.75"/><line x1="189" y1="170" x2="189" y2="184" stroke="#2a2a30" stroke-width="1.6" opacity="0.75"/><line x1="194" y1="170" x2="194" y2="184" stroke="#2a2a30" stroke-width="1.6" opacity="0.75"/><line x1="199" y1="170" x2="199" y2="184" stroke="#2a2a30" stroke-width="1.6" opacity="0.75"/><line x1="204" y1="170" x2="204" y2="184" stroke="#2a2a30" stroke-width="1.6" opacity="0.75"/><line x1="209" y1="170" x2="209" y2="184" stroke="#2a2a30" stroke-width="1.6" opacity="0.75"/><line x1="214" y1="170" x2="214" y2="184" stroke="#2a2a30" stroke-width="1.6" opacity="0.75"/><line x1="219" y1="170" x2="219" y2="184" stroke="#2a2a30" stroke-width="1.6" opacity="0.75"/><line x1="224" y1="170" x2="224" y2="184" stroke="#2a2a30" stroke-width="1.6" opacity="0.75"/><line x1="229" y1="170" x2="229" y2="184" stroke="#2a2a30" stroke-width="1.6" opacity="0.75"/><line x1="234" y1="170" x2="234" y2="184" stroke="#2a2a30" stroke-width="1.6" opacity="0.75"/><line x1="239" y1="170" x2="239" y2="184" stroke="#2a2a30" stroke-width="1.6" opacity="0.75"/><line x1="244" y1="170" x2="244" y2="184" stroke="#2a2a30" stroke-width="1.6" opacity="0.75"/><line x1="249" y1="170" x2="249" y2="184" stroke="#2a2a30" stroke-width="1.6" opacity="0.75"/><line x1="254" y1="170" x2="254" y2="184" stroke="#2a2a30" stroke-width="1.6" opacity="0.75"/><line x1="259" y1="170" x2="259" y2="184" stroke="#2a2a30" stroke-width="1.6" opacity="0.75"/><line x1="264" y1="170" x2="264" y2="184" stroke="#2a2a30" stroke-width="1.6" opacity="0.75"/><line x1="269" y1="170" x2="269" y2="184" stroke="#2a2a30" stroke-width="1.6" opacity="0.75"/><line x1="274" y1="170" x2="274" y2="184" stroke="#2a2a30" stroke-width="1.6" opacity="0.75"/><line x1="279" y1="170" x2="279" y2="184" stroke="#2a2a30" stroke-width="1.6" opacity="0.75"/><line x1="284" y1="170" x2="284" y2="184" stroke="#2a2a30" stroke-width="1.6" opacity="0.75"/><line x1="289" y1="170" x2="289" y2="184" stroke="#2a2a30" stroke-width="1.6" opacity="0.75"/><line x1="294" y1="170" x2="294" y2="184" stroke="#2a2a30" stroke-width="1.6" opacity="0.75"/><line x1="299" y1="170" x2="299" y2="184" stroke="#2a2a30" stroke-width="1.6" opacity="0.75"/><line x1="304" y1="170" x2="304" y2="184" stroke="#2a2a30" stroke-width="1.6" opacity="0.75"/><line x1="309" y1="170" x2="309" y2="184" stroke="#2a2a30" stroke-width="1.6" opacity="0.75"/><line x1="314" y1="170" x2="314" y2="184" stroke="#2a2a30" stroke-width="1.6" opacity="0.75"/><line x1="319" y1="170" x2="319" y2="184" stroke="#2a2a30" stroke-width="1.6" opacity="0.75"/><line x1="324" y1="170" x2="324" y2="184" stroke="#2a2a30" stroke-width="1.6" opacity="0.75"/><line x1="329" y1="170" x2="329" y2="184" stroke="#2a2a30" stroke-width="1.6" opacity="0.75"/><line x1="334" y1="170" x2="334" y2="184" stroke="#2a2a30" stroke-width="1.6" opacity="0.75"/><line x1="339" y1="170" x2="339" y2="184" stroke="#2a2a30" stroke-width="1.6" opacity="0.75"/><line x1="344" y1="170" x2="344" y2="184" stroke="#2a2a30" stroke-width="1.6" opacity="0.75"/><line x1="349" y1="170" x2="349" y2="184" stroke="#2a2a30" stroke-width="1.6" opacity="0.75"/><line x1="354" y1="170" x2="354" y2="184" stroke="#2a2a30" stroke-width="1.6" opacity="0.75"/><line x1="359" y1="170" x2="359" y2="184" stroke="#2a2a30" stroke-width="1.6" opacity="0.75"/><line x1="364" y1="170" x2="364" y2="184" stroke="#2a2a30" stroke-width="1.6" opacity="0.75"/><line x1="369" y1="170" x2="369" y2="184" stroke="#2a2a30" stroke-width="1.6" opacity="0.75"/><line x1="374" y1="170" x2="374" y2="184" stroke="#2a2a30" stroke-width="1.6" opacity="0.75"/><line x1="379" y1="170" x2="379" y2="184" stroke="#2a2a30" stroke-width="1.6" opacity="0.75"/><line x1="384" y1="170" x2="384" y2="184" stroke="#2a2a30" stroke-width="1.6" opacity="0.75"/><line x1="389" y1="170" x2="389" y2="184" stroke="#2a2a30" stroke-width="1.6" opacity="0.75"/><line x1="394" y1="170" x2="394" y2="184" stroke="#2a2a30" stroke-width="1.6" opacity="0.75"/><line x1="399" y1="170" x2="399" y2="184" stroke="#2a2a30" stroke-width="1.6" opacity="0.75"/><line x1="404" y1="170" x2="404" y2="184" stroke="#2a2a30" stroke-width="1.6" opacity="0.75"/><line x1="409" y1="170" x2="409" y2="184" stroke="#2a2a30" stroke-width="1.6" opacity="0.75"/><line x1="414" y1="170" x2="414" y2="184" stroke="#2a2a30" stroke-width="1.6" opacity="0.75"/><line x1="419" y1="170" x2="419" y2="184" stroke="#2a2a30" stroke-width="1.6" opacity="0.75"/><line x1="424" y1="170" x2="424" y2="184" stroke="#2a2a30" stroke-width="1.6" opacity="0.75"/><line x1="429" y1="170" x2="429" y2="184" stroke="#2a2a30" stroke-width="1.6" opacity="0.75"/><line x1="434" y1="170" x2="434" y2="184" stroke="#2a2a30" stroke-width="1.6" opacity="0.75"/><line x1="439" y1="170" x2="439" y2="184" stroke="#2a2a30" stroke-width="1.6" opacity="0.75"/><line x1="444" y1="170" x2="444" y2="184" stroke="#2a2a30" stroke-width="1.6" opacity="0.75"/><line x1="449" y1="170" x2="449" y2="184" stroke="#2a2a30" stroke-width="1.6" opacity="0.75"/><line x1="454" y1="170" x2="454" y2="184" stroke="#2a2a30" stroke-width="1.6" opacity="0.75"/><line x1="459" y1="170" x2="459" y2="184" stroke="#2a2a30" stroke-width="1.6" opacity="0.75"/><line x1="464" y1="170" x2="464" y2="184" stroke="#2a2a30" stroke-width="1.6" opacity="0.75"/><line x1="469" y1="170" x2="469" y2="184" stroke="#2a2a30" stroke-width="1.6" opacity="0.75"/><line x1="474" y1="170" x2="474" y2="184" stroke="#2a2a30" stroke-width="1.6" opacity="0.75"/><line x1="479" y1="170" x2="479" y2="184" stroke="#2a2a30" stroke-width="1.6" opacity="0.75"/><line x1="484" y1="170" x2="484" y2="184" stroke="#2a2a30" stroke-width="1.6" opacity="0.75"/><line x1="489" y1="170" x2="489" y2="184" stroke="#2a2a30" stroke-width="1.6" opacity="0.75"/><line x1="494" y1="170" x2="494" y2="184" stroke="#2a2a30" stroke-width="1.6" opacity="0.75"/><line x1="499" y1="170" x2="499" y2="184" stroke="#2a2a30" stroke-width="1.6" opacity="0.75"/><line x1="504" y1="170" x2="504" y2="184" stroke="#2a2a30" stroke-width="1.6" opacity="0.75"/><line x1="509" y1="170" x2="509" y2="184" stroke="#2a2a30" stroke-width="1.6" opacity="0.75"/><line x1="514" y1="170" x2="514" y2="184" stroke="#2a2a30" stroke-width="1.6" opacity="0.75"/><line x1="519" y1="170" x2="519" y2="184" stroke="#2a2a30" stroke-width="1.6" opacity="0.75"/><line x1="524" y1="170" x2="524" y2="184" stroke="#2a2a30" stroke-width="1.6" opacity="0.75"/><line x1="529" y1="170" x2="529" y2="184" stroke="#2a2a30" stroke-width="1.6" opacity="0.75"/><line x1="534" y1="170" x2="534" y2="184" stroke="#2a2a30" stroke-width="1.6" opacity="0.75"/><line x1="539" y1="170" x2="539" y2="184" stroke="#2a2a30" stroke-width="1.6" opacity="0.75"/><line x1="544" y1="170" x2="544" y2="184" stroke="#2a2a30" stroke-width="1.6" opacity="0.75"/><line x1="549" y1="170" x2="549" y2="184" stroke="#2a2a30" stroke-width="1.6" opacity="0.75"/><line x1="554" y1="170" x2="554" y2="184" stroke="#2a2a30" stroke-width="1.6" opacity="0.75"/><line x1="559" y1="170" x2="559" y2="184" stroke="#2a2a30" stroke-width="1.6" opacity="0.75"/><line x1="564" y1="170" x2="564" y2="184" stroke="#2a2a30" stroke-width="1.6" opacity="0.75"/><rect x="74" y="198" width="500" height="68" fill="#efe6cf" stroke="#1b1b22" stroke-width="3.2"/><rect x="74" y="198" width="64" height="68" fill="#2fb5a3" stroke="#1b1b22" stroke-width="3.2"/><line x1="82" y1="228" x2="130" y2="228" stroke="rgba(0,0,0,.28)" stroke-width="2"/><line x1="82" y1="236" x2="130" y2="236" stroke="rgba(0,0,0,.28)" stroke-width="2"/><rect x="150" y="205" width="68" height="54" rx="2.5" fill="url(#fzBay)" stroke="#1b1b22" stroke-width="2"/><line x1="158" y1="232" x2="194" y2="232" stroke="rgba(0,0,0,.35)" stroke-width="2"/><circle cx="208" cy="232" r="2.4" fill="#6ff06f" stroke="#1b1b22" stroke-width="1.1"/><rect x="226" y="205" width="68" height="54" rx="2.5" fill="url(#fzBay)" stroke="#1b1b22" stroke-width="2"/><line x1="234" y1="232" x2="270" y2="232" stroke="rgba(0,0,0,.35)" stroke-width="2"/><circle cx="284" cy="232" r="2.4" fill="#6ff06f" stroke="#1b1b22" stroke-width="1.1"/><rect x="302" y="205" width="68" height="54" rx="2.5" fill="url(#fzBay)" stroke="#1b1b22" stroke-width="2"/><line x1="310" y1="232" x2="346" y2="232" stroke="rgba(0,0,0,.35)" stroke-width="2"/><circle cx="360" cy="232" r="2.4" fill="#6ff06f" stroke="#1b1b22" stroke-width="1.1"/><rect x="378" y="205" width="68" height="54" rx="2.5" fill="url(#fzBay)" stroke="#1b1b22" stroke-width="2"/><line x1="386" y1="232" x2="422" y2="232" stroke="rgba(0,0,0,.35)" stroke-width="2"/><circle cx="436" cy="232" r="2.4" fill="#6ff06f" stroke="#1b1b22" stroke-width="1.1"/><text x="562" y="237" text-anchor="end" font-family="'Verdana','DejaVu Sans',sans-serif" font-size="13" font-weight="bold" fill="#1b1b22">web01</text><rect x="74" y="266" width="500" height="68" fill="#efe6cf" stroke="#1b1b22" stroke-width="3.2"/><rect x="74" y="266" width="64" height="68" fill="#4f6fd8" stroke="#1b1b22" stroke-width="3.2"/><line x1="82" y1="296" x2="130" y2="296" stroke="rgba(0,0,0,.28)" stroke-width="2"/><line x1="82" y1="304" x2="130" y2="304" stroke="rgba(0,0,0,.28)" stroke-width="2"/><rect x="150" y="270" width="70" height="12" rx="1.5" fill="url(#fzBay)" stroke="#1b1b22" stroke-width="1.6"/><line x1="156" y1="276" x2="198" y2="276" stroke="rgba(0,0,0,.35)" stroke-width="1.6"/><circle cx="210" cy="276" r="1.8" fill="#ffd24a" stroke="#1b1b22" stroke-width="0.9"/><rect x="226" y="270" width="70" height="12" rx="1.5" fill="url(#fzBay)" stroke="#1b1b22" stroke-width="1.6"/><line x1="232" y1="276" x2="274" y2="276" stroke="rgba(0,0,0,.35)" stroke-width="1.6"/><circle cx="286" cy="276" r="1.8" fill="#6ff06f" stroke="#1b1b22" stroke-width="0.9"/><rect x="302" y="270" width="70" height="12" rx="1.5" fill="url(#fzBay)" stroke="#1b1b22" stroke-width="1.6"/><line x1="308" y1="276" x2="350" y2="276" stroke="rgba(0,0,0,.35)" stroke-width="1.6"/><circle cx="362" cy="276" r="1.8" fill="#6ff06f" stroke="#1b1b22" stroke-width="0.9"/><rect x="378" y="270" width="70" height="12" rx="1.5" fill="url(#fzBay)" stroke="#1b1b22" stroke-width="1.6"/><line x1="384" y1="276" x2="426" y2="276" stroke="rgba(0,0,0,.35)" stroke-width="1.6"/><circle cx="438" cy="276" r="1.8" fill="#ffd24a" stroke="#1b1b22" stroke-width="0.9"/><rect x="150" y="285" width="70" height="12" rx="1.5" fill="url(#fzBay)" stroke="#1b1b22" stroke-width="1.6"/><line x1="156" y1="291" x2="198" y2="291" stroke="rgba(0,0,0,.35)" stroke-width="1.6"/><circle cx="210" cy="291" r="1.8" fill="#6ff06f" stroke="#1b1b22" stroke-width="0.9"/><rect x="226" y="285" width="70" height="12" rx="1.5" fill="url(#fzBay)" stroke="#1b1b22" stroke-width="1.6"/><line x1="232" y1="291" x2="274" y2="291" stroke="rgba(0,0,0,.35)" stroke-width="1.6"/><circle cx="286" cy="291" r="1.8" fill="#6ff06f" stroke="#1b1b22" stroke-width="0.9"/><rect x="302" y="285" width="70" height="12" rx="1.5" fill="url(#fzBay)" stroke="#1b1b22" stroke-width="1.6"/><line x1="308" y1="291" x2="350" y2="291" stroke="rgba(0,0,0,.35)" stroke-width="1.6"/><circle cx="362" cy="291" r="1.8" fill="#ffd24a" stroke="#1b1b22" stroke-width="0.9"/><rect x="378" y="285" width="70" height="12" rx="1.5" fill="url(#fzBay)" stroke="#1b1b22" stroke-width="1.6"/><line x1="384" y1="291" x2="426" y2="291" stroke="rgba(0,0,0,.35)" stroke-width="1.6"/><circle cx="438" cy="291" r="1.8" fill="#6ff06f" stroke="#1b1b22" stroke-width="0.9"/><rect x="150" y="304" width="70" height="12" rx="1.5" fill="url(#fzBay)" stroke="#1b1b22" stroke-width="1.6"/><line x1="156" y1="310" x2="198" y2="310" stroke="rgba(0,0,0,.35)" stroke-width="1.6"/><circle cx="210" cy="310" r="1.8" fill="#6ff06f" stroke="#1b1b22" stroke-width="0.9"/><rect x="226" y="304" width="70" height="12" rx="1.5" fill="url(#fzBay)" stroke="#1b1b22" stroke-width="1.6"/><line x1="232" y1="310" x2="274" y2="310" stroke="rgba(0,0,0,.35)" stroke-width="1.6"/><circle cx="286" cy="310" r="1.8" fill="#ffd24a" stroke="#1b1b22" stroke-width="0.9"/><rect x="302" y="304" width="70" height="12" rx="1.5" fill="url(#fzBay)" stroke="#1b1b22" stroke-width="1.6"/><line x1="308" y1="310" x2="350" y2="310" stroke="rgba(0,0,0,.35)" stroke-width="1.6"/><circle cx="362" cy="310" r="1.8" fill="#6ff06f" stroke="#1b1b22" stroke-width="0.9"/><rect x="378" y="304" width="70" height="12" rx="1.5" fill="url(#fzBay)" stroke="#1b1b22" stroke-width="1.6"/><line x1="384" y1="310" x2="426" y2="310" stroke="rgba(0,0,0,.35)" stroke-width="1.6"/><circle cx="438" cy="310" r="1.8" fill="#6ff06f" stroke="#1b1b22" stroke-width="0.9"/><rect x="150" y="319" width="70" height="12" rx="1.5" fill="url(#fzBay)" stroke="#1b1b22" stroke-width="1.6"/><line x1="156" y1="325" x2="198" y2="325" stroke="rgba(0,0,0,.35)" stroke-width="1.6"/><circle cx="210" cy="325" r="1.8" fill="#ffd24a" stroke="#1b1b22" stroke-width="0.9"/><rect x="226" y="319" width="70" height="12" rx="1.5" fill="url(#fzBay)" stroke="#1b1b22" stroke-width="1.6"/><line x1="232" y1="325" x2="274" y2="325" stroke="rgba(0,0,0,.35)" stroke-width="1.6"/><circle cx="286" cy="325" r="1.8" fill="#6ff06f" stroke="#1b1b22" stroke-width="0.9"/><rect x="302" y="319" width="70" height="12" rx="1.5" fill="url(#fzBay)" stroke="#1b1b22" stroke-width="1.6"/><line x1="308" y1="325" x2="350" y2="325" stroke="rgba(0,0,0,.35)" stroke-width="1.6"/><circle cx="362" cy="325" r="1.8" fill="#6ff06f" stroke="#1b1b22" stroke-width="0.9"/><rect x="378" y="319" width="70" height="12" rx="1.5" fill="url(#fzBay)" stroke="#1b1b22" stroke-width="1.6"/><line x1="384" y1="325" x2="426" y2="325" stroke="rgba(0,0,0,.35)" stroke-width="1.6"/><circle cx="438" cy="325" r="1.8" fill="#ffd24a" stroke="#1b1b22" stroke-width="0.9"/><text x="562" y="305" text-anchor="end" font-family="'Verdana','DejaVu Sans',sans-serif" font-size="13" font-weight="bold" fill="#1b1b22">SAN</text><rect x="74" y="334" width="500" height="34" fill="#efe6cf" stroke="#1b1b22" stroke-width="3.2"/><rect x="74" y="334" width="34" height="34" fill="#f28c28" stroke="#1b1b22" stroke-width="3.2"/><line x1="82" y1="347" x2="100" y2="347" stroke="rgba(0,0,0,.28)" stroke-width="2"/><line x1="82" y1="355" x2="100" y2="355" stroke="rgba(0,0,0,.28)" stroke-width="2"/><rect x="120" y="340" width="92" height="22" rx="2.5" fill="#cfd6da" stroke="#1b1b22" stroke-width="2"/><line x1="128" y1="344" x2="128" y2="358" stroke="rgba(0,0,0,.3)" stroke-width="1.6"/><line x1="140" y1="344" x2="140" y2="358" stroke="rgba(0,0,0,.3)" stroke-width="1.6"/><line x1="152" y1="344" x2="152" y2="358" stroke="rgba(0,0,0,.3)" stroke-width="1.6"/><line x1="164" y1="344" x2="164" y2="358" stroke="rgba(0,0,0,.3)" stroke-width="1.6"/><circle cx="200" cy="351" r="3.2" fill="#ffd24a" stroke="#1b1b22" stroke-width="1.4"/><rect x="222" y="340" width="92" height="22" rx="2.5" fill="#cfd6da" stroke="#1b1b22" stroke-width="2"/><line x1="230" y1="344" x2="230" y2="358" stroke="rgba(0,0,0,.3)" stroke-width="1.6"/><line x1="242" y1="344" x2="242" y2="358" stroke="rgba(0,0,0,.3)" stroke-width="1.6"/><line x1="254" y1="344" x2="254" y2="358" stroke="rgba(0,0,0,.3)" stroke-width="1.6"/><line x1="266" y1="344" x2="266" y2="358" stroke="rgba(0,0,0,.3)" stroke-width="1.6"/><circle cx="302" cy="351" r="3.2" fill="#ffd24a" stroke="#1b1b22" stroke-width="1.4"/><rect x="324" y="340" width="92" height="22" rx="2.5" fill="#cfd6da" stroke="#1b1b22" stroke-width="2"/><line x1="332" y1="344" x2="332" y2="358" stroke="rgba(0,0,0,.3)" stroke-width="1.6"/><line x1="344" y1="344" x2="344" y2="358" stroke="rgba(0,0,0,.3)" stroke-width="1.6"/><line x1="356" y1="344" x2="356" y2="358" stroke="rgba(0,0,0,.3)" stroke-width="1.6"/><line x1="368" y1="344" x2="368" y2="358" stroke="rgba(0,0,0,.3)" stroke-width="1.6"/><circle cx="404" cy="351" r="3.2" fill="#ffd24a" stroke="#1b1b22" stroke-width="1.4"/><text x="562" y="356" text-anchor="end" font-family="'Verdana','DejaVu Sans',sans-serif" font-size="13" font-weight="bold" fill="#1b1b22">PDU</text></svg>