<svg xmlns="http://www.w3.org/2000/svg" width="656" height="460" viewBox="0 0 656 460" role="img" aria-label="'80s Neon Style"><defs>
<linearGradient id="e8Bg" x1="0" y1="0" x2="0" y2="1"><stop offset="0" stop-color="#1c0b33"/><stop offset="1" stop-color="#08040f"/></linearGradient>
<filter id="e8glow" x="-60%" y="-60%" width="220%" height="220%">
<feGaussianBlur stdDeviation="2.2" result="b"/>
<feMerge><feMergeNode in="b"/><feMergeNode in="SourceGraphic"/></feMerge>
</filter>
</defs><rect x="0" y="0" width="656" height="460" fill="url(#e8Bg)"/><circle cx="52" cy="28" r="1.3" fill="#ffffff" opacity="0.8"/><circle cx="131" cy="46" r="1.3" fill="#ffffff" opacity="0.8"/><circle cx="361" cy="21" r="1.3" fill="#ffffff" opacity="0.8"/><circle cx="525" cy="41" r="1.3" fill="#ffffff" opacity="0.8"/><circle cx="610" cy="23" r="1.3" fill="#ffffff" opacity="0.8"/><circle cx="446" cy="9" r="1.3" fill="#ffffff" opacity="0.8"/><circle cx="230" cy="14" r="1.3" fill="#ffffff" opacity="0.8"/><g stroke="#ff2d95" stroke-width="1" opacity="0.3"><line x1="0" y1="408" x2="656" y2="408"/><line x1="0" y1="418" x2="656" y2="418"/><line x1="0" y1="431" x2="656" y2="431"/><line x1="0" y1="447" x2="656" y2="447"/><line x1="118" y1="406" x2="-302" y2="460"/><line x1="148" y1="406" x2="-212" y2="460"/><line x1="178" y1="406" x2="-122" y2="460"/><line x1="208" y1="406" x2="-32" y2="460"/><line x1="238" y1="406" x2="58" y2="460"/><line x1="268" y1="406" x2="148" y2="460"/><line x1="298" y1="406" x2="238" y2="460"/><line x1="328" y1="406" x2="328" y2="460"/><line x1="358" y1="406" x2="418" y2="460"/><line x1="388" y1="406" x2="508" y2="460"/><line x1="418" y1="406" x2="598" y2="460"/><line x1="448" y1="406" x2="688" y2="460"/><line x1="478" y1="406" x2="778" y2="460"/><line x1="508" y1="406" x2="868" y2="460"/><line x1="538" y1="406" x2="958" y2="460"/></g><rect x="153" y="20" width="350" height="54" rx="12" fill="#14121f" stroke="#ff2d95" stroke-width="2.5" filter="url(#e8glow)"/><text x="328" y="44" text-anchor="middle" font-family="'Verdana','DejaVu Sans',sans-serif" font-size="19" font-weight="bold" font-style="italic" fill="#ffd9ec" filter="url(#e8glow)">'80s Neon Style</text><text x="328" y="63" text-anchor="middle" font-family="'Verdana','DejaVu Sans',sans-serif" font-size="10" letter-spacing="4" fill="#00e5ff" filter="url(#e8glow)">8 UNITS</text><rect x="38" y="96" width="580" height="300" rx="14" fill="#171528" stroke="#3b3560" stroke-width="2.5"/><rect x="43" y="101" width="570" height="290" rx="10" fill="none" stroke="#ff2d95" stroke-width="1.8" filter="url(#e8glow)"/><rect x="78" y="110" width="500" height="272" fill="#0c0a18" stroke="#3b3560" stroke-width="2"/><rect x="48" y="110" width="30" height="272" fill="#1a1830" stroke="#3b3560" stroke-width="1.8"/><rect x="578" y="110" width="30" height="272" fill="#1a1830" stroke="#3b3560" stroke-width="1.8"/><circle cx="63" cy="127" r="2.2" fill="#ff2d95" filter="url(#e8glow)"/><circle cx="593" cy="127" r="2.2" fill="#ff2d95" filter="url(#e8glow)"/><text x="32" y="130.5" text-anchor="end" font-family="'Verdana','DejaVu Sans',sans-serif" font-size="10" fill="#7d76b3">8</text><circle cx="63" cy="161" r="2.2" fill="#00e5ff" filter="url(#e8glow)"/><circle cx="593" cy="161" r="2.2" fill="#00e5ff" filter="url(#e8glow)"/><text x="32" y="164.5" text-anchor="end" font-family="'Verdana','DejaVu Sans',sans-serif" font-size="10" fill="#7d76b3">7</text><circle cx="63" cy="195" r="2.2" fill="#ff2d95" filter="url(#e8glow)"/><circle cx="593" cy="195" r="2.2" fill="#ff2d95" filter="url(#e8glow)"/><text x="32" y="198.5" text-anchor="end" font-family="'Verdana','DejaVu Sans',sans-serif" font-size="10" fill="#7d76b3">6</text><circle cx="63" cy="229" r="2.2" fill="#00e5ff" filter="url(#e8glow)"/><circle cx="593" cy="229" r="2.2" fill="#00e5ff" filter="url(#e8glow)"/><text x="32" y="232.5" text-anchor="end" font-family="'Verdana','DejaVu Sans',sans-serif" font-size="10" fill="#7d76b3">5</text><circle cx="63" cy="263" r="2.2" fill="#ff2d95" filter="url(#e8glow)"/><circle cx="593" cy="263" r="2.2" fill="#ff2d95" filter="url(#e8glow)"/><text x="32" y="266.5" text-anchor="end" font-family="'Verdana','DejaVu Sans',sans-serif" font-size="10" fill="#7d76b3">4</text><circle cx="63" cy="297" r="2.2" fill="#00e5ff" filter="url(#e8glow)"/><circle cx="593" cy="297" r="2.2" fill="#00e5ff" filter="url(#e8glow)"/><text x="32" y="300.5" text-anchor="end" font-family="'Verdana','DejaVu Sans',sans-serif" font-size="10" fill="#7d76b3">3</text><circle cx="63" cy="331" r="2.2" fill="#ff2d95" filter="url(#e8glow)"/><circle cx="593" cy="331" r="2.2" fill="#ff2d95" filter="url(#e8glow)"/><text x="32" y="334.5" text-anchor="end" font-family="'Verdana','DejaVu Sans',sans-serif" font-size="10" fill="#7d76b3">2</text><circle cx="63" cy="365" r="2.2" fill="#00e5ff" filter="url(#e8glow)"/><circle cx="593" cy="365" r="2.2" fill="#00e5ff" filter="url(#e8glow)"/><text x="32" y="368.5" text-anchor="end" font-family="'Verdana','DejaVu Sans',sans-serif" font-size="10" fill="#7d76b3">1</text><rect x="78" y="110" width="500" height="34" fill="#14121f" stroke="#2f2a4d" stroke-width="2"/><rect x="83" y="115" width="24" height="24" rx="8" fill="#00e5ff" fill-opacity="0.12" stroke="#00e5ff" stroke-width="2.5" filter="url(#e8glow)"/><rect x="119" y="121" width="14" height="12" fill="#0c0a18" stroke="#00e5ff" stroke-width="1.4"/><rect x="138" y="121" width="14" height="12" fill="#0c0a18" stroke="#00e5ff" stroke-width="1.4"/><rect x="157" y="121" width="14" height="12" fill="#0c0a18" stroke="#00e5ff" stroke-width="1.4"/><rect x="176" y="121" width="14" height="12" fill="#0c0a18" stroke="#00e5ff" stroke-width="1.4"/><rect x="195" y="121" width="14" height="12" fill="#0c0a18" stroke="#00e5ff" stroke-width="1.4"/><rect x="214" y="121" width="14" height="12" fill="#0c0a18" stroke="#00e5ff" stroke-width="1.4"/><rect x="233" y="121" width="14" height="12" fill="#0c0a18" stroke="#00e5ff" stroke-width="1.4"/><rect x="252" y="121" width="14" height="12" fill="#0c0a18" stroke="#00e5ff" stroke-width="1.4"/><rect x="271" y="121" width="14" height="12" fill="#0c0a18" stroke="#00e5ff" stroke-width="1.4"/><rect x="290" y="121" width="14" height="12" fill="#0c0a18" stroke="#00e5ff" stroke-width="1.4"/><rect x="309" y="121" width="14" height="12" fill="#0c0a18" stroke="#00e5ff" stroke-width="1.4"/><rect x="328" y="121" width="14" height="12" fill="#0c0a18" stroke="#00e5ff" stroke-width="1.4"/><rect x="347" y="121" width="14" height="12" fill="#0c0a18" stroke="#00e5ff" stroke-width="1.4"/><rect x="366" y="121" width="14" height="12" fill="#0c0a18" stroke="#00e5ff" stroke-width="1.4"/><circle cx="397" cy="127" r="3.5" fill="#ff2d95" filter="url(#e8glow)"/><circle cx="411" cy="127" r="3.5" fill="#00e5ff" filter="url(#e8glow)"/><text x="566" y="131.5" text-anchor="end" font-family="'Verdana','DejaVu Sans',sans-serif" font-size="12.5" font-weight="bold" fill="#00e5ff" filter="url(#e8glow)">QFX5200</text><rect x="78" y="144" width="500" height="34" fill="#14121f" stroke="#b166ff" stroke-width="2" filter="url(#e8glow)"/><circle cx="93.4" cy="152" r="1.6" fill="#00e5ff" filter="url(#e8glow)"/><rect x="88.4" y="157" width="10" height="10" fill="#0c0a18" stroke="#b166ff" stroke-width="1.2"/><circle cx="113.80000000000001" cy="152" r="1.6" fill="#ff2d95" filter="url(#e8glow)"/><rect x="108.80000000000001" y="157" width="10" height="10" fill="#0c0a18" stroke="#b166ff" stroke-width="1.2"/><circle cx="134.2" cy="152" r="1.6" fill="#00e5ff" filter="url(#e8glow)"/><rect x="129.2" y="157" width="10" height="10" fill="#0c0a18" stroke="#b166ff" stroke-width="1.2"/><circle cx="154.6" cy="152" r="1.6" fill="#ff2d95" filter="url(#e8glow)"/><rect x="149.6" y="157" width="10" height="10" fill="#0c0a18" stroke="#b166ff" stroke-width="1.2"/><circle cx="175" cy="152" r="1.6" fill="#00e5ff" filter="url(#e8glow)"/><rect x="170" y="157" width="10" height="10" fill="#0c0a18" stroke="#b166ff" stroke-width="1.2"/><circle cx="195.4" cy="152" r="1.6" fill="#ff2d95" filter="url(#e8glow)"/><rect x="190.4" y="157" width="10" height="10" fill="#0c0a18" stroke="#b166ff" stroke-width="1.2"/><circle cx="215.8" cy="152" r="1.6" fill="#00e5ff" filter="url(#e8glow)"/><rect x="210.8" y="157" width="10" height="10" fill="#0c0a18" stroke="#b166ff" stroke-width="1.2"/><circle cx="236.2" cy="152" r="1.6" fill="#ff2d95" filter="url(#e8glow)"/><rect x="231.2" y="157" width="10" height="10" fill="#0c0a18" stroke="#b166ff" stroke-width="1.2"/><circle cx="256.6" cy="152" r="1.6" fill="#00e5ff" filter="url(#e8glow)"/><rect x="251.6" y="157" width="10" height="10" fill="#0c0a18" stroke="#b166ff" stroke-width="1.2"/><circle cx="277" cy="152" r="1.6" fill="#ff2d95" filter="url(#e8glow)"/><rect x="272" y="157" width="10" height="10" fill="#0c0a18" stroke="#b166ff" stroke-width="1.2"/><circle cx="297.4" cy="152" r="1.6" fill="#00e5ff" filter="url(#e8glow)"/><rect x="292.4" y="157" width="10" height="10" fill="#0c0a18" stroke="#b166ff" stroke-width="1.2"/><circle cx="317.79999999999995" cy="152" r="1.6" fill="#ff2d95" filter="url(#e8glow)"/><rect x="312.79999999999995" y="157" width="10" height="10" fill="#0c0a18" stroke="#b166ff" stroke-width="1.2"/><circle cx="338.2" cy="152" r="1.6" fill="#00e5ff" filter="url(#e8glow)"/><rect x="333.2" y="157" width="10" height="10" fill="#0c0a18" stroke="#b166ff" stroke-width="1.2"/><circle cx="358.6" cy="152" r="1.6" fill="#ff2d95" filter="url(#e8glow)"/><rect x="353.6" y="157" width="10" height="10" fill="#0c0a18" stroke="#b166ff" stroke-width="1.2"/><circle cx="379" cy="152" r="1.6" fill="#00e5ff" filter="url(#e8glow)"/><rect x="374" y="157" width="10" height="10" fill="#0c0a18" stroke="#b166ff" stroke-width="1.2"/><circle cx="399.4" cy="152" r="1.6" fill="#ff2d95" filter="url(#e8glow)"/><rect x="394.4" y="157" width="10" height="10" fill="#0c0a18" stroke="#b166ff" stroke-width="1.2"/><circle cx="419.79999999999995" cy="152" r="1.6" fill="#00e5ff" filter="url(#e8glow)"/><rect x="414.79999999999995" y="157" width="10" height="10" fill="#0c0a18" stroke="#b166ff" stroke-width="1.2"/><circle cx="440.19999999999993" cy="152" r="1.6" fill="#ff2d95" filter="url(#e8glow)"/><rect x="435.19999999999993" y="157" width="10" height="10" fill="#0c0a18" stroke="#b166ff" stroke-width="1.2"/><circle cx="460.6" cy="152" r="1.6" fill="#00e5ff" filter="url(#e8glow)"/><rect x="455.6" y="157" width="10" height="10" fill="#0c0a18" stroke="#b166ff" stroke-width="1.2"/><circle cx="481" cy="152" r="1.6" fill="#ff2d95" filter="url(#e8glow)"/><rect x="476" y="157" width="10" height="10" fill="#0c0a18" stroke="#b166ff" stroke-width="1.2"/><circle cx="501.4" cy="152" r="1.6" fill="#00e5ff" filter="url(#e8glow)"/><rect x="496.4" y="157" width="10" height="10" fill="#0c0a18" stroke="#b166ff" stroke-width="1.2"/><circle cx="521.8" cy="152" r="1.6" fill="#ff2d95" filter="url(#e8glow)"/><rect x="516.8" y="157" width="10" height="10" fill="#0c0a18" stroke="#b166ff" stroke-width="1.2"/><circle cx="542.1999999999999" cy="152" r="1.6" fill="#00e5ff" filter="url(#e8glow)"/><rect x="537.1999999999999" y="157" width="10" height="10" fill="#0c0a18" stroke="#b166ff" stroke-width="1.2"/><circle cx="562.6" cy="152" r="1.6" fill="#ff2d95" filter="url(#e8glow)"/><rect x="557.6" y="157" width="10" height="10" fill="#0c0a18" stroke="#b166ff" stroke-width="1.2"/><rect x="78" y="178" width="500" height="34" fill="#14121f" stroke="#ffe14d" stroke-width="2" filter="url(#e8glow)"/><line x1="90" y1="184" x2="90" y2="199" stroke="#ffe14d" stroke-width="1.2" opacity="0.45"/><line x1="96" y1="184" x2="96" y2="199" stroke="#ffe14d" stroke-width="1.2" opacity="0.45"/><line x1="102" y1="184" x2="102" y2="199" stroke="#ffe14d" stroke-width="1.2" opacity="0.45"/><line x1="108" y1="184" x2="108" y2="199" stroke="#ffe14d" stroke-width="1.2" opacity="0.45"/><line x1="114" y1="184" x2="114" y2="199" stroke="#ffe14d" stroke-width="1.2" opacity="0.45"/><line x1="120" y1="184" x2="120" y2="199" stroke="#ffe14d" stroke-width="1.2" opacity="0.45"/><line x1="126" y1="184" x2="126" y2="199" stroke="#ffe14d" stroke-width="1.2" opacity="0.45"/><line x1="132" y1="184" x2="132" y2="199" stroke="#ffe14d" stroke-width="1.2" opacity="0.45"/><line x1="138" y1="184" x2="138" y2="199" stroke="#ffe14d" stroke-width="1.2" opacity="0.45"/><line x1="144" y1="184" x2="144" y2="199" stroke="#ffe14d" stroke-width="1.2" opacity="0.45"/><line x1="150" y1="184" x2="150" y2="199" stroke="#ffe14d" stroke-width="1.2" opacity="0.45"/><line x1="156" y1="184" x2="156" y2="199" stroke="#ffe14d" stroke-width="1.2" opacity="0.45"/><line x1="162" y1="184" x2="162" y2="199" stroke="#ffe14d" stroke-width="1.2" opacity="0.45"/><line x1="168" y1="184" x2="168" y2="199" stroke="#ffe14d" stroke-width="1.2" opacity="0.45"/><line x1="174" y1="184" x2="174" y2="199" stroke="#ffe14d" stroke-width="1.2" opacity="0.45"/><line x1="180" y1="184" x2="180" y2="199" stroke="#ffe14d" stroke-width="1.2" opacity="0.45"/><line x1="186" y1="184" x2="186" y2="199" stroke="#ffe14d" stroke-width="1.2" opacity="0.45"/><line x1="192" y1="184" x2="192" y2="199" stroke="#ffe14d" stroke-width="1.2" opacity="0.45"/><line x1="198" y1="184" x2="198" y2="199" stroke="#ffe14d" stroke-width="1.2" opacity="0.45"/><line x1="204" y1="184" x2="204" y2="199" stroke="#ffe14d" stroke-width="1.2" opacity="0.45"/><line x1="210" y1="184" x2="210" y2="199" stroke="#ffe14d" stroke-width="1.2" opacity="0.45"/><line x1="216" y1="184" x2="216" y2="199" stroke="#ffe14d" stroke-width="1.2" opacity="0.45"/><line x1="222" y1="184" x2="222" y2="199" stroke="#ffe14d" stroke-width="1.2" opacity="0.45"/><line x1="228" y1="184" x2="228" y2="199" stroke="#ffe14d" stroke-width="1.2" opacity="0.45"/><line x1="234" y1="184" x2="234" y2="199" stroke="#ffe14d" stroke-width="1.2" opacity="0.45"/><line x1="240" y1="184" x2="240" y2="199" stroke="#ffe14d" stroke-width="1.2" opacity="0.45"/><line x1="246" y1="184" x2="246" y2="199" stroke="#ffe14d" stroke-width="1.2" opacity="0.45"/><line x1="252" y1="184" x2="252" y2="199" stroke="#ffe14d" stroke-width="1.2" opacity="0.45"/><line x1="258" y1="184" x2="258" y2="199" stroke="#ffe14d" stroke-width="1.2" opacity="0.45"/><line x1="264" y1="184" x2="264" y2="199" stroke="#ffe14d" stroke-width="1.2" opacity="0.45"/><line x1="270" y1="184" x2="270" y2="199" stroke="#ffe14d" stroke-width="1.2" opacity="0.45"/><line x1="276" y1="184" x2="276" y2="199" stroke="#ffe14d" stroke-width="1.2" opacity="0.45"/><line x1="282" y1="184" x2="282" y2="199" stroke="#ffe14d" stroke-width="1.2" opacity="0.45"/><line x1="288" y1="184" x2="288" y2="199" stroke="#ffe14d" stroke-width="1.2" opacity="0.45"/><line x1="294" y1="184" x2="294" y2="199" stroke="#ffe14d" stroke-width="1.2" opacity="0.45"/><line x1="300" y1="184" x2="300" y2="199" stroke="#ffe14d" stroke-width="1.2" opacity="0.45"/><line x1="306" y1="184" x2="306" y2="199" stroke="#ffe14d" stroke-width="1.2" opacity="0.45"/><line x1="312" y1="184" x2="312" y2="199" stroke="#ffe14d" stroke-width="1.2" opacity="0.45"/><line x1="318" y1="184" x2="318" y2="199" stroke="#ffe14d" stroke-width="1.2" opacity="0.45"/><line x1="324" y1="184" x2="324" y2="199" stroke="#ffe14d" stroke-width="1.2" opacity="0.45"/><line x1="330" y1="184" x2="330" y2="199" stroke="#ffe14d" stroke-width="1.2" opacity="0.45"/><line x1="336" y1="184" x2="336" y2="199" stroke="#ffe14d" stroke-width="1.2" opacity="0.45"/><line x1="342" y1="184" x2="342" y2="199" stroke="#ffe14d" stroke-width="1.2" opacity="0.45"/><line x1="348" y1="184" x2="348" y2="199" stroke="#ffe14d" stroke-width="1.2" opacity="0.45"/><line x1="354" y1="184" x2="354" y2="199" stroke="#ffe14d" stroke-width="1.2" opacity="0.45"/><line x1="360" y1="184" x2="360" y2="199" stroke="#ffe14d" stroke-width="1.2" opacity="0.45"/><line x1="366" y1="184" x2="366" y2="199" stroke="#ffe14d" stroke-width="1.2" opacity="0.45"/><line x1="372" y1="184" x2="372" y2="199" stroke="#ffe14d" stroke-width="1.2" opacity="0.45"/><line x1="378" y1="184" x2="378" y2="199" stroke="#ffe14d" stroke-width="1.2" opacity="0.45"/><line x1="384" y1="184" x2="384" y2="199" stroke="#ffe14d" stroke-width="1.2" opacity="0.45"/><line x1="390" y1="184" x2="390" y2="199" stroke="#ffe14d" stroke-width="1.2" opacity="0.45"/><line x1="396" y1="184" x2="396" y2="199" stroke="#ffe14d" stroke-width="1.2" opacity="0.45"/><line x1="402" y1="184" x2="402" y2="199" stroke="#ffe14d" stroke-width="1.2" opacity="0.45"/><line x1="408" y1="184" x2="408" y2="199" stroke="#ffe14d" stroke-width="1.2" opacity="0.45"/><line x1="414" y1="184" x2="414" y2="199" stroke="#ffe14d" stroke-width="1.2" opacity="0.45"/><line x1="420" y1="184" x2="420" y2="199" stroke="#ffe14d" stroke-width="1.2" opacity="0.45"/><line x1="426" y1="184" x2="426" y2="199" stroke="#ffe14d" stroke-width="1.2" opacity="0.45"/><line x1="432" y1="184" x2="432" y2="199" stroke="#ffe14d" stroke-width="1.2" opacity="0.45"/><line x1="438" y1="184" x2="438" y2="199" stroke="#ffe14d" stroke-width="1.2" opacity="0.45"/><line x1="444" y1="184" x2="444" y2="199" stroke="#ffe14d" stroke-width="1.2" opacity="0.45"/><line x1="450" y1="184" x2="450" y2="199" stroke="#ffe14d" stroke-width="1.2" opacity="0.45"/><line x1="456" y1="184" x2="456" y2="199" stroke="#ffe14d" stroke-width="1.2" opacity="0.45"/><line x1="462" y1="184" x2="462" y2="199" stroke="#ffe14d" stroke-width="1.2" opacity="0.45"/><line x1="468" y1="184" x2="468" y2="199" stroke="#ffe14d" stroke-width="1.2" opacity="0.45"/><line x1="474" y1="184" x2="474" y2="199" stroke="#ffe14d" stroke-width="1.2" opacity="0.45"/><line x1="480" y1="184" x2="480" y2="199" stroke="#ffe14d" stroke-width="1.2" opacity="0.45"/><line x1="486" y1="184" x2="486" y2="199" stroke="#ffe14d" stroke-width="1.2" opacity="0.45"/><line x1="492" y1="184" x2="492" y2="199" stroke="#ffe14d" stroke-width="1.2" opacity="0.45"/><line x1="498" y1="184" x2="498" y2="199" stroke="#ffe14d" stroke-width="1.2" opacity="0.45"/><line x1="504" y1="184" x2="504" y2="199" stroke="#ffe14d" stroke-width="1.2" opacity="0.45"/><line x1="510" y1="184" x2="510" y2="199" stroke="#ffe14d" stroke-width="1.2" opacity="0.45"/><line x1="516" y1="184" x2="516" y2="199" stroke="#ffe14d" stroke-width="1.2" opacity="0.45"/><line x1="522" y1="184" x2="522" y2="199" stroke="#ffe14d" stroke-width="1.2" opacity="0.45"/><line x1="528" y1="184" x2="528" y2="199" stroke="#ffe14d" stroke-width="1.2" opacity="0.45"/><line x1="534" y1="184" x2="534" y2="199" stroke="#ffe14d" stroke-width="1.2" opacity="0.45"/><line x1="540" y1="184" x2="540" y2="199" stroke="#ffe14d" stroke-width="1.2" opacity="0.45"/><line x1="546" y1="184" x2="546" y2="199" stroke="#ffe14d" stroke-width="1.2" opacity="0.45"/><line x1="552" y1="184" x2="552" y2="199" stroke="#ffe14d" stroke-width="1.2" opacity="0.45"/><line x1="558" y1="184" x2="558" y2="199" stroke="#ffe14d" stroke-width="1.2" opacity="0.45"/><line x1="564" y1="184" x2="564" y2="199" stroke="#ffe14d" stroke-width="1.2" opacity="0.45"/><rect x="78" y="212" width="500" height="68" fill="#14121f" stroke="#2f2a4d" stroke-width="2"/><rect x="83" y="217" width="56" height="58" rx="8" fill="#3bff9d" fill-opacity="0.12" stroke="#3bff9d" stroke-width="2.5" filter="url(#e8glow)"/><rect x="151" y="219" width="66" height="54" rx="2" fill="#0c0a18" stroke="#5a5480" stroke-width="1.6"/><line x1="158" y1="246" x2="195" y2="246" stroke="#5a5480" stroke-width="1.6"/><circle cx="207" cy="246" r="2.4" fill="#3bff9d" filter="url(#e8glow)"/><rect x="225" y="219" width="66" height="54" rx="2" fill="#0c0a18" stroke="#5a5480" stroke-width="1.6"/><line x1="232" y1="246" x2="269" y2="246" stroke="#5a5480" stroke-width="1.6"/><circle cx="281" cy="246" r="2.4" fill="#3bff9d" filter="url(#e8glow)"/><rect x="299" y="219" width="66" height="54" rx="2" fill="#0c0a18" stroke="#5a5480" stroke-width="1.6"/><line x1="306" y1="246" x2="343" y2="246" stroke="#5a5480" stroke-width="1.6"/><circle cx="355" cy="246" r="2.4" fill="#3bff9d" filter="url(#e8glow)"/><rect x="373" y="219" width="66" height="54" rx="2" fill="#0c0a18" stroke="#5a5480" stroke-width="1.6"/><line x1="380" y1="246" x2="417" y2="246" stroke="#5a5480" stroke-width="1.6"/><circle cx="429" cy="246" r="2.4" fill="#3bff9d" filter="url(#e8glow)"/><text x="566" y="250.5" text-anchor="end" font-family="'Verdana','DejaVu Sans',sans-serif" font-size="12.5" font-weight="bold" fill="#3bff9d" filter="url(#e8glow)">web01</text><rect x="78" y="280" width="500" height="68" fill="#14121f" stroke="#2f2a4d" stroke-width="2"/><rect x="83" y="285" width="56" height="58" rx="8" fill="#4d9fff" fill-opacity="0.12" stroke="#4d9fff" stroke-width="2.5" filter="url(#e8glow)"/><rect x="151" y="284" width="68" height="12" rx="1.5" fill="#0c0a18" stroke="#5a5480" stroke-width="1.3"/><circle cx="211" cy="290" r="1.8" fill="#ff2d95" filter="url(#e8glow)"/><rect x="225" y="284" width="68" height="12" rx="1.5" fill="#0c0a18" stroke="#5a5480" stroke-width="1.3"/><circle cx="285" cy="290" r="1.8" fill="#4d9fff" filter="url(#e8glow)"/><rect x="299" y="284" width="68" height="12" rx="1.5" fill="#0c0a18" stroke="#5a5480" stroke-width="1.3"/><circle cx="359" cy="290" r="1.8" fill="#ff2d95" filter="url(#e8glow)"/><rect x="373" y="284" width="68" height="12" rx="1.5" fill="#0c0a18" stroke="#5a5480" stroke-width="1.3"/><circle cx="433" cy="290" r="1.8" fill="#4d9fff" filter="url(#e8glow)"/><rect x="151" y="299" width="68" height="12" rx="1.5" fill="#0c0a18" stroke="#5a5480" stroke-width="1.3"/><circle cx="211" cy="305" r="1.8" fill="#4d9fff" filter="url(#e8glow)"/><rect x="225" y="299" width="68" height="12" rx="1.5" fill="#0c0a18" stroke="#5a5480" stroke-width="1.3"/><circle cx="285" cy="305" r="1.8" fill="#ff2d95" filter="url(#e8glow)"/><rect x="299" y="299" width="68" height="12" rx="1.5" fill="#0c0a18" stroke="#5a5480" stroke-width="1.3"/><circle cx="359" cy="305" r="1.8" fill="#4d9fff" filter="url(#e8glow)"/><rect x="373" y="299" width="68" height="12" rx="1.5" fill="#0c0a18" stroke="#5a5480" stroke-width="1.3"/><circle cx="433" cy="305" r="1.8" fill="#ff2d95" filter="url(#e8glow)"/><rect x="151" y="318" width="68" height="12" rx="1.5" fill="#0c0a18" stroke="#5a5480" stroke-width="1.3"/><circle cx="211" cy="324" r="1.8" fill="#ff2d95" filter="url(#e8glow)"/><rect x="225" y="318" width="68" height="12" rx="1.5" fill="#0c0a18" stroke="#5a5480" stroke-width="1.3"/><circle cx="285" cy="324" r="1.8" fill="#4d9fff" filter="url(#e8glow)"/><rect x="299" y="318" width="68" height="12" rx="1.5" fill="#0c0a18" stroke="#5a5480" stroke-width="1.3"/><circle cx="359" cy="324" r="1.8" fill="#ff2d95" filter="url(#e8glow)"/><rect x="373" y="318" width="68" height="12" rx="1.5" fill="#0c0a18" stroke="#5a5480" stroke-width="1.3"/><circle cx="433" cy="324" r="1.8" fill="#4d9fff" filter="url(#e8glow)"/><rect x="151" y="333" width="68" height="12" rx="1.5" fill="#0c0a18" stroke="#5a5480" stroke-width="1.3"/><circle cx="211" cy="339" r="1.8" fill="#4d9fff" filter="url(#e8glow)"/><rect x="225" y="333" width="68" height="12" rx="1.5" fill="#0c0a18" stroke="#5a5480" stroke-width="1.3"/><circle cx="285" cy="339" r="1.8" fill="#ff2d95" filter="url(#e8glow)"/><rect x="299" y="333" width="68" height="12" rx="1.5" fill="#0c0a18" stroke="#5a5480" stroke-width="1.3"/><circle cx="359" cy="339" r="1.8" fill="#4d9fff" filter="url(#e8glow)"/><rect x="373" y="333" width="68" height="12" rx="1.5" fill="#0c0a18" stroke="#5a5480" stroke-width="1.3"/><circle cx="433" cy="339" r="1.8" fill="#ff2d95" filter="url(#e8glow)"/><text x="566" y="318.5" text-anchor="end" font-family="'Verdana','DejaVu Sans',sans-serif" font-size="12.5" font-weight="bold" fill="#4d9fff" filter="url(#e8glow)">SAN</text><rect x="78" y="348" width="500" height="34" fill="#14121f" stroke="#2f2a4d" stroke-width="2"/><rect x="83" y="353" width="24" height="24" rx="8" fill="#ff8a2a" fill-opacity="0.12" stroke="#ff8a2a" stroke-width="2.5" filter="url(#e8glow)"/><rect x="119" y="354" width="88" height="22" rx="2" fill="#0c0a18" stroke="#5a5480" stroke-width="1.6"/><line x1="127" y1="358" x2="127" y2="372" stroke="#3a3560" stroke-width="1.4"/><line x1="138" y1="358" x2="138" y2="372" stroke="#3a3560" stroke-width="1.4"/><line x1="149" y1="358" x2="149" y2="372" stroke="#3a3560" stroke-width="1.4"/><line x1="160" y1="358" x2="160" y2="372" stroke="#3a3560" stroke-width="1.4"/><circle cx="191" cy="365" r="5" fill="none" stroke="#ff8a2a" stroke-width="2" filter="url(#e8glow)"/><line x1="191" y1="362" x2="191" y2="366" stroke="#ff8a2a" stroke-width="1.6" filter="url(#e8glow)"/><rect x="217" y="354" width="88" height="22" rx="2" fill="#0c0a18" stroke="#5a5480" stroke-width="1.6"/><line x1="225" y1="358" x2="225" y2="372" stroke="#3a3560" stroke-width="1.4"/><line x1="236" y1="358" x2="236" y2="372" stroke="#3a3560" stroke-width="1.4"/><line x1="247" y1="358" x2="247" y2="372" stroke="#3a3560" stroke-width="1.4"/><line x1="258" y1="358" x2="258" y2="372" stroke="#3a3560" stroke-width="1.4"/><circle cx="289" cy="365" r="5" fill="none" stroke="#ff8a2a" stroke-width="2" filter="url(#e8glow)"/><line x1="289" y1="362" x2="289" y2="366" stroke="#ff8a2a" stroke-width="1.6" filter="url(#e8glow)"/><rect x="315" y="354" width="88" height="22" rx="2" fill="#0c0a18" stroke="#5a5480" stroke-width="1.6"/><line x1="323" y1="358" x2="323" y2="372" stroke="#3a3560" stroke-width="1.4"/><line x1="334" y1="358" x2="334" y2="372" stroke="#3a3560" stroke-width="1.4"/><line x1="345" y1="358" x2="345" y2="372" stroke="#3a3560" stroke-width="1.4"/><line x1="356" y1="358" x2="356" y2="372" stroke="#3a3560" stroke-width="1.4"/><circle cx="387" cy="365" r="5" fill="none" stroke="#ff8a2a" stroke-width="2" filter="url(#e8glow)"/><line x1="387" y1="362" x2="387" y2="366" stroke="#ff8a2a" stroke-width="1.6" filter="url(#e8glow)"/><text x="566" y="369.5" text-anchor="end" font-family="'Verdana','DejaVu Sans',sans-serif" font-size="12.5" font-weight="bold" fill="#ff8a2a" filter="url(#e8glow)">PDU</text></svg>